<svg width="25" height="24" viewBox="0 0 25 24" fill="none" xmlns="http://www.w3.org/2000/svg">
<rect width="25" height="24" rx="4" fill="#FEFEFE"/>
<path d="M16.8281 6C17.3599 6 17.87 6.22287 18.246 6.61958C18.6221 7.01629 18.8333 7.55435 18.8333 8.11538V14.8846C18.8333 15.4457 18.6221 15.9837 18.246 16.3804C17.87 16.7771 17.3599 17 16.8281 17H8.00521C7.47339 17 6.96336 16.7771 6.58731 16.3804C6.21126 15.9837 6 15.4457 6 14.8846V8.11538C6 7.55435 6.21126 7.01629 6.58731 6.61958C6.96336 6.22287 7.47339 6 8.00521 6H16.8281ZM18.0312 9.35162L12.6204 12.7108C12.5692 12.7425 12.5121 12.7618 12.453 12.7674C12.3939 12.773 12.3344 12.7646 12.2787 12.743L12.2129 12.7108L6.80208 9.35331V14.8846C6.80208 15.2212 6.92884 15.5441 7.15447 15.7821C7.3801 16.0201 7.68612 16.1538 8.00521 16.1538H16.8281C17.1472 16.1538 17.4532 16.0201 17.6789 15.7821C17.9045 15.5441 18.0312 15.2212 18.0312 14.8846V9.35162ZM16.8281 6.84615H8.00521C7.68612 6.84615 7.3801 6.97988 7.15447 7.2179C6.92884 7.45593 6.80208 7.77876 6.80208 8.11538V8.37092L12.4167 11.8554L18.0312 8.36923V8.11538C18.0312 7.77876 17.9045 7.45593 17.6789 7.2179C17.4532 6.97988 17.1472 6.84615 16.8281 6.84615V6.84615Z" fill="#111F66"/>
</svg>
