<svg width="210" height="94" viewBox="0 0 210 94" fill="none" xmlns="http://www.w3.org/2000/svg">
<path fill-rule="evenodd" clip-rule="evenodd" d="M14.4095 48.0433L14.4603 48.0095L14.4095 34.2335V34.1847H14.4094L14.3734 24.4335L21.31 20.6753L21.3383 29.4086V44.6882C18.8237 45.6731 16.4759 46.7922 14.4096 48.0962V48.0434L14.4095 48.0433ZM29.7544 41.9123V29.3833V24.931L22.818 21.1729V7.02372L33.1905 0V41.0381C32.0423 41.3301 30.8945 41.6323 29.7544 41.948V41.9123ZM34.4295 40.7268V0.720724L35.8547 1.55002V40.376C35.3805 40.4917 34.9054 40.6083 34.4295 40.7268ZM37.0936 40.0759V2.27108L38.8026 3.26551V39.6661L37.0936 40.0759ZM47.2473 37.5608V27.3075L40.4109 31.0115V15.3694L48.0514 20.1224V30.9833V36.9246V37.3368C47.786 37.4119 47.518 37.4866 47.2473 37.5608Z" fill="#111F66"/>
<path fill-rule="evenodd" clip-rule="evenodd" d="M49.5305 31.5335C50.9145 32.6227 52.2147 33.832 53.4178 35.1488C57.4674 33.6214 61.4448 31.5777 65.3123 28.7495C65.1501 38.4956 63.7171 45.0977 61.0073 48.541C57.3104 52.8432 52.3899 55.6242 46.6028 57.3285C37.3761 60.0464 28.1942 59.4323 19.1005 64.0978C11.1599 68.1718 6.3629 76.8101 11.209 85.958C10.9765 85.7436 10.7467 85.5262 10.5201 85.3048C8.51139 83.2302 6.99826 80.904 5.90453 78.3653C2.87437 71.3303 3.36185 63.735 6.64963 56.8802C8.0227 54.0179 9.85121 51.6569 12.0824 49.7384C21.12 42.4504 38.2647 40.2713 49.5305 36.8635V31.5335ZM47.8399 76.2864C43.8044 81.8126 38.3194 85.6841 32.0871 88.7019C38.5886 88.4658 44.5852 85.9545 49.4377 81.1277C53.6455 76.9417 56.4021 71.5166 57.4552 65.3894C57.9231 62.6687 58.0779 59.7869 57.9413 56.755L62.1392 53.3685C62.4709 55.377 62.6448 57.4457 62.6448 59.5594C62.6448 78.5802 48.6212 93.9998 31.3223 93.9998C28.2549 93.9998 25.2909 93.5149 22.4897 92.6105C22.3161 92.5545 22.1428 92.4967 21.9703 92.4375C16.8511 90.3033 12.7441 86.7817 12.0492 80.4656C11.9052 76.6254 13.4386 73.5926 15.7739 71.2616C18.8282 68.2133 23.2539 66.365 27.0943 65.4815C31.5016 64.4677 35.9812 64.0619 40.4031 63.1702C45.3253 61.9968 50.1073 60.5423 54.5289 58.3681C54.1491 64.5851 51.7551 71.3156 47.84 76.2864H47.8399ZM13.0375 37.7473L12.9694 37.8081C3.82592 46.7846 0.340504 57.5384 1.38497 69.7155C0.484989 66.5054 0 63.0946 0 59.5594C0 48.0432 5.14163 37.8487 13.0375 31.5956V36.8636V37.7474L13.0375 37.7473Z" fill="#1A911E"/>
<path d="M87.7942 66.0167H83.1701V63.5178C80.4044 63.3631 78.2159 62.5107 76.6039 60.9615C74.9924 59.4117 74.1863 57.32 74.1863 54.686C74.1863 52.0517 74.9924 49.9598 76.6039 48.4102C78.2159 46.8609 80.4045 46.0085 83.1701 45.8538V43.355H87.7942V45.8538C90.5246 46.0473 92.6823 46.9141 94.2676 48.4538C95.8529 49.9938 96.6457 52.0712 96.6457 54.686C96.6457 57.3008 95.8529 59.3778 94.2676 60.9178C92.6823 62.4575 90.5246 63.3242 87.7942 63.5178V66.0167V66.0167ZM79.9993 51.7226C79.383 52.5554 79.0747 53.543 79.0747 54.686C79.0747 55.8287 79.383 56.8162 79.9993 57.6494C80.6161 58.4822 81.6728 58.9761 83.1701 59.1312V50.2406C81.6728 50.3957 80.6161 50.8894 79.9993 51.7226V51.7226ZM87.7942 50.2405V59.1311C89.2384 58.9373 90.2603 58.4287 90.8591 57.6059C91.458 56.7826 91.7576 55.8091 91.7576 54.686C91.7576 53.5626 91.458 52.589 90.8591 51.7661C90.2603 50.943 89.2384 50.4344 87.7942 50.2405V50.2405ZM102.142 64.8544H97.1216L104.388 44.5172H109.672L116.939 64.8544H111.918L110.862 61.6588H103.199L102.142 64.8544ZM106.555 51.4319L104.652 57.3008H109.408L107.506 51.4319C107.294 50.7735 107.136 50.0858 107.03 49.369C106.924 50.0858 106.766 50.7735 106.555 51.4319ZM118.709 44.5172H127.059C129.137 44.5172 130.736 44.9434 131.854 45.7954C132.973 46.6478 133.532 47.9359 133.532 49.6596C133.532 51.8869 132.616 53.359 130.784 54.0759C133.11 54.8311 134.272 56.5064 134.272 59.102C134.272 60.2058 134.052 61.1501 133.611 61.9346C133.171 62.719 132.568 63.3147 131.802 63.7213C131.035 64.128 130.243 64.4186 129.423 64.5929C128.604 64.7673 127.71 64.8544 126.742 64.8544H118.709V44.5172ZM126.9 60.6416C128.538 60.6416 129.357 59.9347 129.357 58.521C129.357 57.1068 128.538 56.3999 126.9 56.3999H123.571V60.6416H126.9ZM128.102 51.9984C128.463 51.6595 128.644 51.1996 128.644 50.6184C128.644 50.0374 128.463 49.5773 128.102 49.2382C127.741 48.8996 127.243 48.73 126.609 48.73H123.597V52.4779L126.609 52.507C127.243 52.507 127.741 52.3375 128.102 51.9984ZM138.447 62.2397C136.72 60.2058 135.858 57.6878 135.858 54.686C135.858 51.6838 136.72 49.1659 138.447 47.132C140.173 45.0982 142.613 44.0815 145.766 44.0815C148.919 44.0815 151.359 45.0983 153.085 47.132C154.811 49.1659 155.675 51.6838 155.675 54.686C155.675 57.6878 154.811 60.2058 153.085 62.2397C151.359 64.2735 148.919 65.2902 145.766 65.2902C142.613 65.2902 140.173 64.2734 138.447 62.2397ZM149.373 58.7825C150.227 57.7365 150.654 56.3708 150.654 54.686C150.654 53.0008 150.227 51.6355 149.373 50.5895C148.518 49.5432 147.316 49.0203 145.766 49.0203C144.216 49.0203 143.014 49.5432 142.159 50.5895C141.305 51.6355 140.878 53.0008 140.878 54.686C140.878 56.3708 141.305 57.7365 142.159 58.7825C143.014 59.8283 144.216 60.3513 145.766 60.3513C147.316 60.3513 148.518 59.8283 149.373 58.7825ZM158.238 44.5172H165.557C170.929 44.5172 173.616 46.8414 173.616 51.4899C173.616 56.0997 170.929 58.4238 165.557 58.4627H163.126V64.8544H158.238V44.5172ZM165.795 53.8144C167.662 53.8144 168.595 53.0395 168.595 51.4899C168.595 49.9407 167.662 49.1659 165.795 49.1659H163.126V53.8145H165.795V53.8144ZM192.587 64.8544H187.699V56.5452C187.699 55.1702 187.734 54.0563 187.805 53.2043L180.565 64.8544H175.941V44.5172H180.829V52.8265C180.829 54.221 180.794 55.3445 180.724 56.1965L187.963 44.5172H192.587V64.8544ZM194.675 44.5172H210V49.311H204.795V64.8544H199.906V49.311H194.675V44.5172Z" fill="#111F66"/>
<path d="M74.1863 78.5512C74.1863 77.2148 74.3909 76.0258 74.8006 74.9846C75.21 73.9437 75.7666 73.1134 76.4704 72.4945C77.1741 71.8753 77.9482 71.4111 78.7927 71.1016C79.6374 70.792 80.5267 70.6372 81.4607 70.6372C82.8682 70.6372 84.167 70.9468 85.3571 71.5657V75.2591C84.4869 74.4572 83.3928 74.0561 82.0747 74.0561C80.8978 74.0561 79.8965 74.4325 79.0711 75.1853C78.2457 75.938 77.8331 77.06 77.8331 78.5512C77.8331 79.8878 78.2425 80.8973 79.0616 81.5797C79.8804 82.2623 80.8722 82.6032 82.0365 82.6032C83.508 82.6032 84.6469 82.1743 85.4531 81.3161V85.1148C84.2631 85.7337 82.9577 86.0432 81.5375 86.0432C80.5778 86.0432 79.6726 85.8955 78.8215 85.6001C77.9707 85.3047 77.1934 84.865 76.4895 84.281C75.7859 83.6972 75.2259 82.9128 74.8102 81.928C74.3944 80.9432 74.1863 79.8175 74.1863 78.5512L74.1863 78.5512ZM86.3936 70.9539H97.5259V74.4359H93.7446V85.7268H90.1939V74.4359H86.3936V70.9539H86.3936ZM99.042 70.9539H104.359C108.261 70.9539 110.213 72.6421 110.213 76.0188C110.213 79.3673 108.261 81.0556 104.359 81.0838H102.593V85.7268H99.042V70.9539H99.042ZM104.531 77.7073C105.888 77.7073 106.566 77.1444 106.566 76.0188C106.566 74.8933 105.888 74.3306 104.531 74.3306H102.593V77.7073H104.531ZM113.111 83.8274C111.857 82.35 111.23 80.5209 111.23 78.3404C111.23 76.1596 111.857 74.3306 113.111 72.8532C114.365 71.3758 116.137 70.6372 118.428 70.6372C120.718 70.6372 122.49 71.3758 123.744 72.8532C124.998 74.3306 125.625 76.1596 125.625 78.3404C125.625 80.5209 124.998 82.35 123.744 83.8274C122.49 85.3048 120.718 86.0433 118.428 86.0433C116.137 86.0433 114.365 85.3048 113.111 83.8274ZM121.047 81.3161C121.668 80.5564 121.978 79.5643 121.978 78.3404C121.978 77.1162 121.668 76.1244 121.047 75.3647C120.427 74.6047 119.554 74.2249 118.428 74.2249C117.302 74.2249 116.428 74.6047 115.808 75.3647C115.187 76.1244 114.877 77.1162 114.877 78.3404C114.877 79.5643 115.187 80.5564 115.808 81.3161C116.428 82.0758 117.302 82.4557 118.428 82.4557C119.554 82.4557 120.427 82.0758 121.047 81.3161ZM136.028 85.7267H139.579V70.9538H136.22L130.961 79.4376C131.012 78.8187 131.038 78.0026 131.038 76.9896V70.9538H127.487V85.7267H130.846L136.105 77.2641C136.054 77.883 136.028 78.6921 136.028 79.6908V85.7267ZM136.7 69.1598C135.83 69.8071 134.774 70.1307 133.533 70.1307C132.292 70.1307 131.236 69.8071 130.366 69.1598V66.5007C131.249 67.0917 132.304 67.387 133.533 67.387C134.761 67.387 135.817 67.0917 136.7 66.5007V69.1598ZM149.655 85.7267H146.105V70.9538H155.798V74.4359H149.655V85.7267ZM157.275 70.9538H162.592C166.495 70.9538 168.446 72.642 168.446 76.0187C168.446 79.3673 166.495 81.0556 162.592 81.0838H160.826V85.7267H157.275V70.9538H157.275ZM162.765 77.7073C164.121 77.7073 164.799 77.1444 164.799 76.0187C164.799 74.8933 164.121 74.3305 162.765 74.3305H160.826V77.7073H162.765ZM177.217 82.35C176.642 83.7008 175.989 84.6539 175.26 85.2097C174.53 85.7654 173.68 86.0432 172.707 86.0432C172.118 86.0432 171.402 85.9097 170.557 85.6422V82.4133C171.031 82.6105 171.549 82.7089 172.112 82.7089C173.008 82.7089 173.59 82.3711 173.859 81.696L174.07 81.1894L168.83 70.9538H172.765L175.72 77.686L178.139 70.9538H182.074L177.218 82.35H177.217ZM186.833 85.7267H183.283V70.9538H195.375V85.7267H191.824V74.4358H186.833V85.7267H186.833ZM201.459 85.7267H197.908V70.9538H210V85.7267H206.449V74.4358H201.459V85.7267H201.459Z" fill="#111F66"/>
</svg>
