<svg width="18" height="18" viewBox="0 0 18 18" fill="none" xmlns="http://www.w3.org/2000/svg">
<path fill-rule="evenodd" clip-rule="evenodd" d="M2.59694 6.85641C4.30978 10.7483 7.35774 13.8425 11.1468 15.5191L11.1587 15.5244L11.8907 15.8648C12.8228 16.2982 13.9184 15.9904 14.516 15.1273L15.7373 13.3636C15.8119 13.2558 15.7927 13.106 15.6935 13.0226L13.5615 11.2278C13.4555 11.1385 13.2997 11.1593 13.2186 11.2735L12.3888 12.4419C12.1873 12.7256 11.8233 12.8242 11.515 12.6786C8.68177 11.3407 6.40505 8.96497 5.12286 6.00857C4.98332 5.68681 5.07781 5.30705 5.34974 5.09677L6.46943 4.23091C6.57884 4.14631 6.59875 3.98368 6.51325 3.87308L4.793 1.64804C4.71305 1.54462 4.56954 1.52454 4.4663 1.60231L2.76689 2.88247C1.93431 3.50966 1.6411 4.6625 2.06608 5.63795L2.59636 6.85511L2.59694 6.85641ZM10.5795 16.8974C6.4625 15.0738 3.15111 11.7108 1.28998 7.48101L1.28886 7.47846L0.757465 6.25874C0.0491609 4.63299 0.537842 2.71158 1.92549 1.66627L3.6249 0.386111C4.34759 -0.158295 5.35215 -0.0176905 5.91181 0.706203L7.63206 2.93125C8.23059 3.70542 8.09118 4.84381 7.32532 5.43605L6.68372 5.93221C7.76751 8.1266 9.48521 9.91898 11.5882 11.0499L12.0637 10.3804C12.6312 9.58123 13.7222 9.43576 14.4641 10.0603L16.5961 11.8551C17.2901 12.4393 17.4247 13.4879 16.9025 14.242L15.6812 16.0058C14.6852 17.4443 12.8592 17.9572 11.3057 17.235L10.5795 16.8974Z" fill="white"/>
<path fill-rule="evenodd" clip-rule="evenodd" d="M15.6584 1.03039C15.7932 1.17104 15.869 1.36181 15.869 1.56072V5.38915C15.869 5.80336 15.5472 6.13915 15.1502 6.13915C14.7532 6.13915 14.4315 5.80336 14.4315 5.38915V3.37138L11.4041 6.53039C11.1234 6.82328 10.6683 6.82328 10.3876 6.53039C10.1069 6.2375 10.1069 5.76262 10.3876 5.46973L13.415 2.31072L11.4813 2.31072C11.0843 2.31072 10.7625 1.97493 10.7625 1.56072C10.7625 1.14651 11.0843 0.81072 11.4813 0.81072L15.1502 0.81072C15.3408 0.81072 15.5236 0.889738 15.6584 1.03039Z" fill="white"/>
</svg>
