<svg width="23" height="24" viewBox="0 0 23 24" fill="none" xmlns="http://www.w3.org/2000/svg">
<path fill-rule="evenodd" clip-rule="evenodd" d="M5.59694 9.85641C7.30978 13.7483 10.3577 16.8425 14.1468 18.5191L14.1587 18.5244L14.8907 18.8648C15.8228 19.2982 16.9184 18.9904 17.516 18.1273L18.7373 16.3636C18.8119 16.2558 18.7927 16.106 18.6935 16.0226L16.5615 14.2278C16.4555 14.1385 16.2997 14.1593 16.2186 14.2735L15.3888 15.4419C15.1873 15.7256 14.8233 15.8242 14.515 15.6786C11.6818 14.3407 9.40505 11.965 8.12286 9.00857C7.98332 8.68681 8.07781 8.30705 8.34974 8.09677L9.46943 7.23091C9.57884 7.14631 9.59875 6.98368 9.51325 6.87308L7.793 4.64804C7.71305 4.54462 7.56954 4.52454 7.4663 4.60231L5.76689 5.88247C4.93431 6.50966 4.6411 7.6625 5.06608 8.63795L5.59636 9.85511L5.59694 9.85641ZM13.5795 19.8974C9.4625 18.0738 6.15111 14.7108 4.28998 10.481L4.28886 10.4785L3.75747 9.25874C3.04916 7.63299 3.53784 5.71158 4.92549 4.66627L6.6249 3.38611C7.34759 2.8417 8.35215 2.98231 8.91181 3.7062L10.6321 5.93125C11.2306 6.70542 11.0912 7.84381 10.3253 8.43605L9.68372 8.93221C10.7675 11.1266 12.4852 12.919 14.5882 14.0499L15.0637 13.3804C15.6312 12.5812 16.7222 12.4358 17.4641 13.0603L19.5961 14.8551C20.2901 15.4393 20.4247 16.4879 19.9025 17.242L18.6812 19.0058C17.6852 20.4443 15.8592 20.9572 14.3057 20.235L13.5795 19.8974Z" fill="white"/>
<path fill-rule="evenodd" clip-rule="evenodd" d="M18.6584 4.03039C18.7932 4.17104 18.869 4.36181 18.869 4.56072V8.38915C18.869 8.80336 18.5472 9.13915 18.1502 9.13915C17.7533 9.13915 17.4315 8.80336 17.4315 8.38915V6.37138L14.4041 9.53039C14.1234 9.82328 13.6683 9.82328 13.3876 9.53039C13.1069 9.2375 13.1069 8.76262 13.3876 8.46973L16.415 5.31072L14.4813 5.31072C14.0843 5.31072 13.7625 4.97493 13.7625 4.56072C13.7625 4.14651 14.0843 3.81072 14.4813 3.81072L18.1502 3.81072C18.3408 3.81072 18.5236 3.88974 18.6584 4.03039Z" fill="white"/>
</svg>
