<svg width="18" height="15" viewBox="0 0 18 15" fill="none" xmlns="http://www.w3.org/2000/svg">
<path d="M9 15C8.8759 15 8.75229 14.959 8.6529 14.8765C7.88558 14.2402 7.15584 13.6504 6.46938 13.0957C2.59513 9.96533 0 7.89697 0 4.8838C0 2.0996 2.07552 0 4.78125 0C6.91379 0 8.28264 1.4126 9 2.68457C9.71736 1.4126 11.0862 0 13.2188 0C15.9245 0 18 2.0996 18 4.8838C18 7.897 15.4049 9.96533 11.5306 13.0957C10.8442 13.6504 10.1144 14.2402 9.3471 14.8765C9.24771 14.959 9.1241 15 9 15Z" fill="#E61E14"/>
</svg>
