<svg width="18" height="15" viewBox="0 0 18 15" fill="none" xmlns="http://www.w3.org/2000/svg">
<path d="M8.97233 14.4918L8.97205 14.4916C8.20196 13.853 7.46989 13.2613 6.78364 12.7068L6.78362 12.7068L6.70382 12.6423C4.79064 11.0965 3.24056 9.84414 2.15688 8.61512C1.07034 7.38285 0.5 6.2255 0.5 4.8838C0.5 2.36708 2.36025 0.5 4.78125 0.5C6.66031 0.5 7.89285 1.7393 8.56449 2.93019L9 3.7024L9.43551 2.93019C10.1071 1.7393 11.3397 0.5 13.2188 0.5C15.6398 0.5 17.5 2.36708 17.5 4.8838C17.5 6.22552 16.9297 7.38287 15.8431 8.61513C14.7595 9.84412 13.2094 11.0965 11.2963 12.6422L11.2164 12.7068L11.2164 12.7068C10.5301 13.2613 9.79804 13.853 9.02795 14.4916L9.02767 14.4918C9.02354 14.4952 9.01479 14.5 9 14.5C8.98521 14.5 8.97646 14.4952 8.97233 14.4918Z" stroke="#393939"/>
</svg>
