<svg width="13" height="17" viewBox="0 0 13 17" fill="none" xmlns="http://www.w3.org/2000/svg">
<g opacity="0.7">
<path d="M11.5317 3.84034C11.0906 2.87978 10.3922 2.0553 9.51113 1.4552C8.63007 0.855092 7.59959 0.501975 6.53007 0.433669C6.21694 0.411108 5.90254 0.411108 5.58941 0.433669C4.51989 0.501975 3.48941 0.855092 2.60835 1.4552C1.72729 2.0553 1.02884 2.87978 0.587818 3.84034C0.114126 4.84117 -0.0787598 5.94837 0.0291513 7.04718C0.137062 8.146 0.541843 9.19644 1.20155 10.0897L5.59514 15.978C5.6487 16.0497 5.71866 16.108 5.79937 16.1481C5.88008 16.1883 5.96928 16.2093 6.05974 16.2093C6.1502 16.2093 6.23939 16.1883 6.3201 16.1481C6.40081 16.108 6.47078 16.0497 6.52433 15.978L10.9179 10.0897C11.5776 9.19644 11.9824 8.146 12.0903 7.04718C12.1982 5.94837 12.0054 4.84117 11.5317 3.84034ZM6.05974 8.1637C5.69272 8.1637 5.33394 8.05668 5.02877 7.85617C4.7236 7.65566 4.48575 7.37067 4.3453 7.03724C4.20485 6.70381 4.1681 6.33691 4.2397 5.98294C4.3113 5.62897 4.48804 5.30383 4.74757 5.04863C5.00709 4.79343 5.33774 4.61964 5.69771 4.54923C6.05768 4.47882 6.4308 4.51496 6.76988 4.65307C7.10896 4.79118 7.39878 5.02507 7.60269 5.32515C7.8066 5.62523 7.91543 5.97803 7.91543 6.33893C7.91557 6.5786 7.86767 6.81595 7.77447 7.03741C7.68126 7.25886 7.54458 7.46008 7.37223 7.62955C7.19988 7.79903 6.99526 7.93343 6.77005 8.02508C6.54484 8.11674 6.30347 8.16384 6.05974 8.1637Z" fill="#030A1B"/>
</g>
</svg>
