<svg width="16" height="16" viewBox="0 0 16 16" fill="none" xmlns="http://www.w3.org/2000/svg">
<g opacity="0.7">
<path d="M3.78947 0C2.39718 0 1.26316 1.10494 1.26316 2.46154V8.82051H2.10526V2.46154C2.10526 1.54531 2.84914 0.820513 3.78947 0.820513C4.58288 0.820513 5.23619 1.33968 5.42105 2.05128H6.27632C6.07406 0.89024 5.03748 0 3.78947 0ZM5.89474 2.46154C4.96168 2.46154 4.21053 3.19344 4.21053 4.10256H7.57895C7.57895 3.19344 6.82779 2.46154 5.89474 2.46154ZM4.63158 4.92308C4.39903 4.92308 4.21053 5.10675 4.21053 5.33333V5.74359C4.21053 5.97017 4.39903 6.15385 4.63158 6.15385C4.86413 6.15385 5.05263 5.97017 5.05263 5.74359V5.33333C5.05263 5.10675 4.86413 4.92308 4.63158 4.92308ZM7.15789 4.92308C6.92535 4.92308 6.73684 5.10675 6.73684 5.33333V5.74359C6.73684 5.97017 6.92535 6.15385 7.15789 6.15385C7.39044 6.15385 7.57895 5.97017 7.57895 5.74359V5.33333C7.57895 5.10675 7.39044 4.92308 7.15789 4.92308ZM5.89474 6.35897C5.66219 6.35897 5.47368 6.54267 5.47368 6.76923V7.17949C5.47368 7.40607 5.66219 7.58974 5.89474 7.58974C6.12728 7.58974 6.31579 7.40607 6.31579 7.17949V6.76923C6.31579 6.54267 6.12728 6.35897 5.89474 6.35897ZM0 9.23077C0 12.0718 2.34737 14.359 5.26316 14.359H10.7368C13.6526 14.359 16 12.0718 16 9.23077H0ZM4.26316 14.7692C4.4264 15.4778 4.99557 16 5.68421 16H10.3158C11.0044 16 11.5736 15.4778 11.7368 14.7692H4.26316Z" fill="#030A1B"/>
</g>
</svg>
