<svg width="30" height="30" viewBox="0 0 30 30" fill="none" xmlns="http://www.w3.org/2000/svg">
<path d="M26.25 0H3.75C1.67893 0 0 1.67893 0 3.75V26.25C0 28.3211 1.67893 30 3.75 30H26.25C28.3211 30 30 28.3211 30 26.25V3.75C30 1.67893 28.3211 0 26.25 0Z" fill="#111F66"/>
<path fill-rule="evenodd" clip-rule="evenodd" d="M24.7216 20.2424C24.0069 19.667 23.2431 19.1506 22.4913 18.6229C20.9918 17.5698 19.6204 17.4881 18.5015 19.1823C17.8732 20.1335 16.9937 20.1751 16.074 19.7578C13.5386 18.6083 11.5809 16.8369 10.4341 14.26C9.92679 13.1199 9.93343 12.0977 11.1204 11.2913C11.7488 10.8649 12.3819 10.3603 12.3313 9.42849C12.2652 8.21351 9.31517 4.15312 8.15023 3.72458C7.66816 3.54721 7.18812 3.5587 6.6977 3.72356C3.96601 4.64218 2.83461 6.88873 3.91818 9.54875C7.15076 17.4848 12.8397 23.0096 20.6707 26.3817C21.1171 26.5737 21.6132 26.6505 21.8643 26.7194C23.6472 26.7373 25.7358 25.0196 26.339 23.3149C26.9197 21.6748 25.6924 21.0238 24.7216 20.2424Z" fill="white"/>
<path fill-rule="evenodd" clip-rule="evenodd" d="M15.9409 4.53742C21.6659 5.41783 24.3062 8.14007 25.0353 13.9063C25.1029 14.4389 24.9045 15.2403 25.6643 15.2551C26.4585 15.2703 26.2672 14.4807 26.2738 13.9476C26.341 8.51686 21.6058 3.48237 16.1065 3.29674C15.6915 3.3564 14.833 3.01059 14.7795 3.94053C14.7438 4.56755 15.4666 4.46448 15.9409 4.53742Z" fill="white"/>
<path fill-rule="evenodd" clip-rule="evenodd" d="M17.0607 6.11756C16.51 6.05126 15.783 5.79175 15.6544 6.55589C15.52 7.35782 16.3302 7.27637 16.8509 7.39289C20.3868 8.18316 21.6179 9.47015 22.2001 12.9776C22.2851 13.4889 22.1162 14.2848 22.9852 14.1529C23.6292 14.0548 23.3966 13.3726 23.4505 12.9741C23.479 9.60675 20.5935 6.54176 17.0607 6.11756Z" fill="white"/>
<path fill-rule="evenodd" clip-rule="evenodd" d="M17.3853 8.87169C17.0177 8.88079 16.657 8.92054 16.5219 9.31334C16.319 9.90044 16.7458 10.0405 17.1803 10.1102C18.6308 10.3431 19.3942 11.1984 19.539 12.6448C19.5782 13.0374 19.8273 13.3555 20.2066 13.3107C20.7321 13.2481 20.7795 12.7803 20.7635 12.3361C20.7894 10.7111 18.9527 8.83279 17.3853 8.87169Z" fill="white"/>
</svg>
