<svg width="42" height="42" viewBox="0 0 42 42" fill="none" xmlns="http://www.w3.org/2000/svg">
<path fill-rule="evenodd" clip-rule="evenodd" d="M1.51425 0.0567688C1.12013 0.160144 0.892621 0.292264 0.594272 0.59095C0.288801 0.89679 0.158487 1.12321 0.0587121 1.52149C-0.00419115 1.77261 -0.00441157 1.85175 0.00365618 21.0935L0.0117238 40.4134L0.0961516 40.6446C0.316124 41.2468 0.733756 41.6693 1.34347 41.9066L1.55594 41.9892L20.9162 41.9972C38.139 42.0044 40.2993 41.9999 40.4829 41.9574C41.1777 41.7962 41.7962 41.1777 41.9574 40.4828C41.9999 40.2992 42.0044 38.1387 41.9972 20.9147L41.9892 1.553L41.9066 1.34052C41.7868 1.03278 41.6376 0.801073 41.4173 0.580675C41.1886 0.35202 40.9621 0.20909 40.6447 0.0931079L40.4135 0.00867398L21.0793 0.00246519C2.10102 -0.0036491 1.74077 -0.00264057 1.51425 0.0567688ZM17.6359 3.72172C18.9145 4.68049 20.7801 6.07786 21.7818 6.82695C23.0089 7.74454 23.5956 8.20153 23.5799 8.22753C23.5373 8.29842 22.5211 9.65185 22.4582 9.72137L22.3964 9.78992L18.5339 6.89273L14.6714 3.99557H9.33483H3.99833V20.999V38.0023H10.9946H17.9908V31.0056V24.0088H14.4923H10.9937L11.002 23.0082L11.0103 22.0075L19.0072 21.9995L27.004 21.9916V23.0002V24.0088H23.5059H20.0078V31.0056V38.0023H29.0052H38.0026V31.0056V24.0088H35.0087H32.0148V23.0003V21.9917H35.0087H38.0026V12.9936V3.99557H32.5029H27.0031L27.0115 2.9949L27.0198 1.99424H33.5118H40.0038L40.0117 21.0069L40.0196 40.0195L21.0084 40.0116L1.99715 40.0037L1.98908 21.0305C1.98467 10.5952 1.98775 2.03956 1.99598 2.01788C2.00786 1.98652 3.36996 1.97848 8.66117 1.97848H15.3114L17.6359 3.72172Z" fill="white"/>
</svg>
