<svg width="210" height="94" viewBox="0 0 210 94" fill="none" xmlns="http://www.w3.org/2000/svg">
<path fill-rule="evenodd" clip-rule="evenodd" d="M14.4095 48.0433L14.4603 48.0095L14.4095 34.2335V34.1847H14.4093L14.3734 24.4335L21.31 20.6753L21.3383 29.4086V44.6882C18.8237 45.6731 16.4759 46.7922 14.4096 48.0962V48.0434L14.4095 48.0433ZM29.7544 41.9123V29.3833V24.931L22.818 21.1729V7.02372L33.1905 0V41.0381C32.0423 41.3301 30.8945 41.6323 29.7544 41.948V41.9123V41.9123ZM34.4295 40.7268V0.720724L35.8547 1.55002V40.376C35.3805 40.4917 34.9054 40.6083 34.4295 40.7268ZM37.0936 40.0759V2.27108L38.8026 3.26551V39.6661L37.0936 40.0759ZM47.2473 37.5608V27.3075L40.4109 31.0115V15.3694L48.0514 20.1224V30.9833V36.9246V37.3368C47.786 37.4119 47.5179 37.4866 47.2473 37.5608Z" fill="white"/>
<path fill-rule="evenodd" clip-rule="evenodd" d="M49.5305 31.534C50.9145 32.6232 52.2147 33.8325 53.4178 35.1493C57.4674 33.6219 61.4448 31.5782 65.3123 28.75C65.1501 38.4961 63.7171 45.0982 61.0073 48.5415C57.3104 52.8437 52.3899 55.6247 46.6028 57.329C37.3761 60.0469 28.1942 59.4328 19.1005 64.0983C11.1599 68.1722 6.3629 76.8106 11.209 85.9585C10.9765 85.7441 10.7467 85.5267 10.5201 85.3053C8.51139 83.2307 6.99826 80.9045 5.90453 78.3657C2.87437 71.3308 3.36185 63.7355 6.64963 56.8806C8.0227 54.0184 9.85121 51.6574 12.0824 49.7389C21.12 42.4509 38.2647 40.2718 49.5305 36.864V31.534V31.534ZM47.8399 76.2868C43.8044 81.8131 38.3194 85.6846 32.0871 88.7024C38.5886 88.4663 44.5852 85.955 49.4377 81.1282C53.6455 76.9422 56.4021 71.5171 57.4552 65.3899C57.9231 62.6692 58.0779 59.7874 57.9413 56.7555L62.1392 53.369C62.4709 55.3775 62.6448 57.4462 62.6448 59.5599C62.6448 78.5807 48.6212 94.0003 31.3223 94.0003C28.2549 94.0003 25.2909 93.5154 22.4897 92.611C22.3161 92.555 22.1428 92.4972 21.9703 92.438C16.8511 90.3038 12.7441 86.7822 12.0492 80.4661C11.9052 76.6259 13.4386 73.5931 15.7739 71.2621C18.8282 68.2138 23.2539 66.3655 27.0943 65.4819C31.5016 64.4681 35.9812 64.0624 40.4031 63.1707C45.3253 61.9973 50.1073 60.5427 54.5289 58.3686C54.1491 64.5856 51.7551 71.3161 47.84 76.2868H47.8399ZM13.0375 37.7478L12.9694 37.8086C3.82592 46.785 0.340504 57.5388 1.38497 69.716C0.484989 66.5059 0 63.0951 0 59.5599C0 48.0437 5.14163 37.8492 13.0375 31.5961V36.864V37.7479L13.0375 37.7478Z" fill="#1A911E"/>
<path d="M87.7942 66.0162H83.1701V63.5173C80.4044 63.3626 78.2158 62.5102 76.6039 60.961C74.9923 59.4113 74.1863 57.3195 74.1863 54.6855C74.1863 52.0512 74.9923 49.9593 76.6039 48.4097C78.2158 46.8605 80.4044 46.0081 83.1701 45.8533V43.3545H87.7942V45.8533C90.5246 46.0468 92.6823 46.9136 94.2676 48.4533C95.8529 49.9933 96.6457 52.0707 96.6457 54.6855C96.6457 57.3003 95.8529 59.3773 94.2676 60.9173C92.6823 62.457 90.5246 63.3237 87.7942 63.5173V66.0162V66.0162ZM79.9993 51.7221C79.383 52.5549 79.0747 53.5425 79.0747 54.6855C79.0747 55.8282 79.383 56.8157 79.9993 57.6489C80.616 58.4817 81.6727 58.9756 83.1701 59.1307V50.2401C81.6727 50.3952 80.6161 50.8889 79.9993 51.7221V51.7221ZM87.7942 50.2401V59.1306C89.2384 58.9368 90.2602 58.4282 90.8591 57.6054C91.458 56.7821 91.7575 55.8086 91.7575 54.6855C91.7575 53.5621 91.458 52.5886 90.8591 51.7656C90.2602 50.9425 89.2384 50.4339 87.7942 50.24V50.2401ZM102.142 64.8539H97.1215L104.388 44.5167H109.672L116.939 64.8539H111.918L110.862 61.6583H103.199L102.142 64.8539ZM106.554 51.4314L104.652 57.3003H109.408L107.506 51.4314C107.294 50.773 107.136 50.0853 107.03 49.3685C106.924 50.0853 106.766 50.773 106.554 51.4314V51.4314ZM118.709 44.5167H127.059C129.137 44.5167 130.736 44.943 131.854 45.7949C132.973 46.6473 133.532 47.9355 133.532 49.6591C133.532 51.8864 132.616 53.3585 130.784 54.0754C133.11 54.8306 134.272 56.5059 134.272 59.1015C134.272 60.2053 134.052 61.1497 133.611 61.9341C133.171 62.7185 132.568 63.3142 131.802 63.7208C131.035 64.1275 130.243 64.4181 129.423 64.5924C128.604 64.7668 127.71 64.8539 126.742 64.8539H118.709V44.5167V44.5167ZM126.9 60.6411C128.538 60.6411 129.357 59.9343 129.357 58.5205C129.357 57.1063 128.538 56.3995 126.9 56.3995H123.571V60.6411H126.9ZM128.102 51.9979C128.463 51.659 128.644 51.1992 128.644 50.6179C128.644 50.037 128.463 49.5768 128.102 49.2377C127.741 48.8991 127.243 48.7295 126.609 48.7295H123.597V52.4774L126.609 52.5066C127.243 52.5066 127.741 52.337 128.102 51.9979V51.9979ZM138.447 62.2392C136.72 60.2053 135.858 57.6873 135.858 54.6855C135.858 51.6833 136.72 49.1654 138.447 47.1315C140.173 45.0978 142.613 44.081 145.766 44.081C148.919 44.081 151.359 45.0978 153.085 47.1315C154.811 49.1654 155.675 51.6833 155.675 54.6855C155.675 57.6873 154.811 60.2054 153.085 62.2392C151.359 64.273 148.919 65.2897 145.766 65.2897C142.613 65.2897 140.173 64.2729 138.447 62.2392V62.2392ZM149.373 58.782C150.227 57.736 150.654 56.3703 150.654 54.6855C150.654 53.0003 150.227 51.635 149.373 50.589C148.518 49.5428 147.316 49.0198 145.766 49.0198C144.216 49.0198 143.013 49.5428 142.159 50.589C141.305 51.635 140.878 53.0003 140.878 54.6855C140.878 56.3703 141.305 57.736 142.159 58.782C143.013 59.8278 144.216 60.3508 145.766 60.3508C147.316 60.3508 148.518 59.8278 149.373 58.782ZM158.238 44.5167H165.557C170.929 44.5167 173.616 46.8409 173.616 51.4894C173.616 56.0992 170.929 58.4233 165.557 58.4622H163.126V64.8539H158.238V44.5167V44.5167ZM165.795 53.814C167.662 53.814 168.595 53.039 168.595 51.4895C168.595 49.9402 167.662 49.1654 165.795 49.1654H163.126V53.814H165.795V53.814ZM192.587 64.8539H187.699V56.5447C187.699 55.1697 187.734 54.0558 187.805 53.2039L180.565 64.8539H175.941V44.5167H180.829V52.826C180.829 54.2205 180.794 55.344 180.723 56.196L187.963 44.5167H192.587V64.8539ZM194.675 44.5167H210V49.3105H204.795V64.8539H199.906V49.3105H194.675V44.5167V44.5167Z" fill="white"/>
<path d="M74.1863 78.5505C74.1863 77.214 74.3909 76.0251 74.8006 74.9839C75.21 73.943 75.7666 73.1127 76.4704 72.4938C77.1741 71.8745 77.9482 71.4104 78.7927 71.1009C79.6374 70.7913 80.5267 70.6365 81.4607 70.6365C82.8682 70.6365 84.167 70.9461 85.3571 71.565V75.2583C84.4869 74.4565 83.3928 74.0554 82.0747 74.0554C80.8978 74.0554 79.8965 74.4318 79.0711 75.1845C78.2457 75.9373 77.8331 77.0592 77.8331 78.5505C77.8331 79.887 78.2425 80.8965 79.0616 81.579C79.8804 82.2615 80.8722 82.6025 82.0365 82.6025C83.508 82.6025 84.6469 82.1736 85.4531 81.3153V85.114C84.2631 85.7329 82.9577 86.0425 81.5375 86.0425C80.5778 86.0425 79.6726 85.8948 78.8215 85.5994C77.9707 85.304 77.1934 84.8643 76.4895 84.2803C75.7859 83.6965 75.2259 82.912 74.8102 81.9273C74.3944 80.9424 74.1863 79.8168 74.1863 78.5505L74.1863 78.5505ZM86.3936 70.9531H97.5259V74.4352H93.7446V85.726H90.1939V74.4352H86.3936V70.9531H86.3936ZM99.042 70.9531H104.359C108.261 70.9531 110.213 72.6413 110.213 76.018C110.213 79.3666 108.261 81.0549 104.359 81.0831H102.593V85.726H99.042V70.9531H99.042ZM104.531 77.7066C105.888 77.7066 106.566 77.1437 106.566 76.018C106.566 74.8926 105.888 74.3298 104.531 74.3298H102.593V77.7066H104.531ZM113.111 83.8267C111.857 82.3493 111.23 80.5202 111.23 78.3397C111.23 76.1589 111.857 74.3299 113.111 72.8525C114.365 71.3751 116.137 70.6365 118.428 70.6365C120.718 70.6365 122.49 71.3751 123.744 72.8525C124.998 74.3298 125.625 76.1589 125.625 78.3397C125.625 80.5202 124.998 82.3493 123.744 83.8267C122.49 85.304 120.718 86.0425 118.428 86.0425C116.137 86.0425 114.365 85.3041 113.111 83.8267ZM121.047 81.3153C121.668 80.5556 121.978 79.5635 121.978 78.3397C121.978 77.1155 121.668 76.1237 121.047 75.364C120.427 74.604 119.554 74.2241 118.428 74.2241C117.302 74.2241 116.428 74.604 115.808 75.364C115.187 76.1237 114.877 77.1155 114.877 78.3397C114.877 79.5635 115.187 80.5556 115.808 81.3153C116.428 82.0751 117.302 82.455 118.428 82.455C119.554 82.455 120.427 82.0751 121.047 81.3153ZM136.028 85.726H139.579V70.9531H136.22L130.961 79.4369C131.012 78.818 131.038 78.0019 131.038 76.9889V70.9531H127.487V85.726H130.846L136.105 77.2633C136.054 77.8822 136.028 78.6914 136.028 79.6901V85.726V85.726ZM136.7 69.1591C135.83 69.8064 134.774 70.13 133.533 70.13C132.292 70.13 131.236 69.8064 130.366 69.1591V66.5C131.249 67.091 132.304 67.3863 133.533 67.3863C134.761 67.3863 135.817 67.0909 136.7 66.5V69.1591ZM149.655 85.726H146.105V70.9531H155.798V74.4352H149.655V85.726ZM157.275 70.9531H162.592C166.495 70.9531 168.446 72.6413 168.446 76.018C168.446 79.3665 166.495 81.0549 162.592 81.083H160.826V85.726H157.275V70.9531H157.275ZM162.765 77.7065C164.121 77.7065 164.799 77.1436 164.799 76.018C164.799 74.8926 164.121 74.3298 162.765 74.3298H160.826V77.7065H162.765ZM177.217 82.3492C176.642 83.7 175.989 84.6532 175.26 85.209C174.53 85.7646 173.68 86.0425 172.707 86.0425C172.118 86.0425 171.402 85.9089 170.557 85.6414V82.4126C171.031 82.6097 171.549 82.7081 172.112 82.7081C173.008 82.7081 173.59 82.3704 173.859 81.6952L174.07 81.1887L168.83 70.953H172.765L175.72 77.6853L178.139 70.953H182.074L177.218 82.3492H177.217ZM186.833 85.726H183.283V70.953H195.375V85.726H191.824V74.4351H186.833V85.726H186.833ZM201.459 85.726H197.908V70.953H210V85.726H206.449V74.4351H201.459V85.726H201.459Z" fill="white"/>
</svg>
