<svg width="105" height="123" viewBox="0 0 105 123" fill="none" xmlns="http://www.w3.org/2000/svg">
<path fill-rule="evenodd" clip-rule="evenodd" d="M35.2914 41.2922L35.3393 41.2632L35.2914 29.4229V29.381H35.2912L35.2573 21L41.7991 17.77L41.8257 25.276V38.4086C39.4543 39.255 37.2401 40.2169 35.2914 41.3376V41.2922ZM49.7629 36.0228V25.2544V21.4277L43.2213 18.1976V6.03673L53.0034 0V35.2714C51.9206 35.5223 50.8381 35.782 49.7629 36.0534V36.0228ZM54.1719 35.0038V0.619465L55.516 1.33222V34.7024C55.0687 34.8018 54.6207 34.902 54.1719 35.0038ZM56.6844 34.4444V1.95197L58.2961 2.80666V34.0922L56.6844 34.4444ZM66.2601 32.2827V23.4702L59.8129 26.6538V13.2096L67.0184 17.2948V26.6295V31.7359V32.0902C66.7681 32.1548 66.5154 32.2189 66.2601 32.2827Z" fill="white"/>
<path fill-rule="evenodd" clip-rule="evenodd" d="M68.4135 27.1028C69.7187 28.0389 70.9449 29.0783 72.0795 30.21C75.8986 28.8972 79.6497 27.1407 83.297 24.71C83.1441 33.0865 81.7926 38.7609 79.237 41.7203C75.7506 45.418 71.1101 47.8082 65.6525 49.273C56.9509 51.609 48.2916 51.0812 39.7155 55.0911C32.2269 58.5925 27.7029 66.017 32.2731 73.8794C32.0539 73.6952 31.8372 73.5083 31.6235 73.3181C29.7291 71.535 28.3021 69.5356 27.2706 67.3536C24.4129 61.3072 24.8727 54.7792 27.9733 48.8877C29.2682 46.4276 30.9927 44.3984 33.0969 42.7495C41.6201 36.4856 57.789 34.6127 68.4135 31.6838V27.1028ZM66.8192 65.5668C63.0133 70.3166 57.8405 73.644 51.9629 76.2378C58.0944 76.0348 63.7497 73.8764 68.326 69.7279C72.2943 66.1301 74.894 61.4673 75.8871 56.2012C76.3284 53.8628 76.4743 51.3859 76.3455 48.7801L80.3045 45.8694C80.6173 47.5957 80.7813 49.3737 80.7813 51.1904C80.7813 67.5384 67.5559 80.7912 51.2417 80.7912C48.3489 80.7912 45.5536 80.3744 42.9118 79.5971C42.7481 79.549 42.5846 79.4993 42.422 79.4484C37.5941 77.6141 33.7209 74.5874 33.0655 69.1588C32.9298 65.8583 34.3758 63.2516 36.5782 61.2482C39.4587 58.6282 43.6325 57.0397 47.2543 56.2803C51.4108 55.4089 55.6354 55.0602 59.8056 54.2938C64.4476 53.2853 68.9575 52.0351 73.1273 50.1665C72.7692 55.5099 70.5115 61.2946 66.8192 65.5668ZM33.9976 32.4434L33.9334 32.4956C25.3103 40.2107 22.0233 49.4534 23.0083 59.9194C22.1595 57.1603 21.7021 54.2288 21.7021 51.1904C21.7021 41.2925 26.5511 32.5305 33.9976 27.1561V31.6838V32.4434Z" fill="#328335"/>
<path d="M10.5205 108.89H6.94554V107.13C4.80734 107.021 3.11528 106.42 1.8691 105.328C0.623189 104.237 0 102.763 0 100.907C0 99.0508 0.623189 97.577 1.8691 96.4852C3.11528 95.3935 4.80734 94.7929 6.94554 94.6839V92.9233H10.5205V94.6839C12.6314 94.8202 14.2995 95.431 15.5252 96.5158C16.7509 97.6009 17.3637 99.0646 17.3637 100.907C17.3637 102.749 16.7509 104.213 15.5252 105.298C14.2995 106.383 12.6314 106.993 10.5205 107.13V108.89ZM4.49423 98.819C4.01768 99.4057 3.77926 100.102 3.77926 100.907C3.77926 101.712 4.01768 102.408 4.49423 102.995C4.97097 103.582 5.78792 103.93 6.94554 104.039V97.7747C5.78792 97.884 4.97097 98.2319 4.49423 98.819ZM10.5205 97.7747V104.039C11.6371 103.902 12.4271 103.544 12.89 102.964C13.3531 102.384 13.5847 101.698 13.5847 100.907C13.5847 100.115 13.3531 99.4295 12.89 98.8497C12.4271 98.2697 11.6371 97.9113 10.5205 97.7747ZM21.6129 108.071H17.7317L23.3493 93.7422H27.4348L33.0526 108.071H29.1712L28.3543 105.82H22.43L21.6129 108.071ZM25.0244 98.6142L23.5536 102.749H27.2306L25.7598 98.6142C25.5963 98.1502 25.4737 97.6657 25.3921 97.1606C25.3104 97.6657 25.1878 98.1502 25.0244 98.6142ZM34.4214 93.7422H40.8766C42.4835 93.7422 43.7195 94.0425 44.5843 94.6428C45.449 95.2434 45.8814 96.151 45.8814 97.3654C45.8814 98.9348 45.1732 99.972 43.7569 100.477C45.5547 101.009 46.4535 102.189 46.4535 104.018C46.4535 104.796 46.2831 105.461 45.9426 106.014C45.6022 106.567 45.1358 106.987 44.5435 107.273C43.951 107.56 43.3381 107.764 42.7048 107.887C42.0717 108.01 41.3804 108.071 40.6315 108.071H34.4214V93.7422ZM40.754 105.103C42.0205 105.103 42.6538 104.605 42.6538 103.609C42.6538 102.613 42.0205 102.115 40.754 102.115H38.1802V105.103H40.754ZM41.6834 99.0134C41.9626 98.7744 42.1023 98.4505 42.1023 98.041C42.1023 97.6316 41.9626 97.3074 41.6834 97.0686C41.4043 96.8298 41.0194 96.7104 40.5292 96.7104H38.2005V99.3511L40.5292 99.3717C41.0194 99.3717 41.4043 99.2523 41.6834 99.0134ZM49.6809 106.229C48.3463 104.796 47.6791 103.022 47.6791 100.907C47.6791 98.7917 48.3463 97.0175 49.6809 95.5845C51.0157 94.1515 52.9017 93.4351 55.3396 93.4351C57.7772 93.4351 59.6635 94.1515 60.9981 95.5845C62.3326 97.0175 63 98.7917 63 100.907C63 103.022 62.3326 104.796 60.9981 106.229C59.6635 107.662 57.7772 108.378 55.3396 108.378C52.9017 108.378 51.0157 107.662 49.6809 106.229ZM58.128 103.793C58.7884 103.056 59.1186 102.094 59.1186 100.907C59.1186 99.7196 58.7884 98.7576 58.128 98.0206C57.4674 97.2834 56.538 96.915 55.3396 96.915C54.1412 96.915 53.2115 97.2834 52.5512 98.0206C51.8905 98.7576 51.5602 99.7196 51.5602 100.907C51.5602 102.094 51.8905 103.056 52.5512 103.793C53.2115 104.53 54.1412 104.899 55.3396 104.899C56.538 104.899 57.4674 104.53 58.128 103.793ZM64.9815 93.7422H70.6402C74.7937 93.7422 76.8706 95.3797 76.8706 98.655C76.8706 101.903 74.7937 103.541 70.6402 103.568H68.7606V108.071H64.9815V93.7422ZM70.824 100.293C72.2676 100.293 72.9892 99.7469 72.9892 98.655C72.9892 97.5634 72.2676 97.0175 70.824 97.0175H68.7606V100.293H70.824ZM91.5379 108.071H87.7588V102.217C87.7588 101.248 87.7861 100.463 87.8406 99.8629L82.2433 108.071H78.6684V93.7422H82.4474V99.5968C82.4474 100.579 82.4204 101.371 82.3659 101.971L87.9632 93.7422H91.5379V108.071ZM93.1518 93.7422H105V97.1198H100.976V108.071H97.1964V97.1198H93.1518V93.7422Z" fill="white"/>
<path d="M0 117.722C0 116.78 0.158252 115.942 0.474946 115.209C0.79145 114.475 1.22173 113.89 1.76589 113.454C2.30995 113.018 2.9085 112.691 3.56134 112.473C4.21436 112.254 4.90185 112.145 5.624 112.145C6.71212 112.145 7.71621 112.364 8.63636 112.8V115.402C7.96351 114.837 7.11767 114.554 6.09876 114.554C5.18881 114.554 4.41463 114.819 3.77653 115.35C3.13842 115.88 2.81946 116.671 2.81946 117.722C2.81946 118.663 3.13596 119.375 3.76916 119.855C4.40217 120.336 5.16898 120.577 6.06911 120.577C7.20671 120.577 8.0873 120.274 8.71048 119.67V122.346C7.79052 122.782 6.78143 123 5.68339 123C4.94132 123 4.24146 122.896 3.58353 122.688C2.92578 122.48 2.32487 122.17 1.78062 121.759C1.23665 121.347 0.803725 120.795 0.482311 120.101C0.160896 119.407 0 118.614 0 117.722H0ZM9.43763 112.368H18.0443V114.822H15.1208V122.777H12.3758V114.822H9.43763V112.368ZM19.2164 112.368H23.3268C26.3439 112.368 27.8526 113.558 27.8526 115.937C27.8526 118.297 26.3439 119.486 23.3268 119.506H21.9615V122.777H19.2164V112.368ZM23.4603 117.127C24.5089 117.127 25.0331 116.73 25.0331 115.937C25.0331 115.144 24.5089 114.748 23.4603 114.748H21.9615V117.127H23.4603ZM30.0933 121.439C29.1238 120.398 28.6391 119.109 28.6391 117.573C28.6391 116.036 29.1238 114.748 30.0933 113.707C31.0629 112.666 32.4328 112.145 34.2037 112.145C35.9743 112.145 37.3446 112.666 38.3141 113.707C39.2835 114.748 39.7682 116.036 39.7682 117.573C39.7682 119.109 39.2835 120.398 38.3141 121.439C37.3446 122.48 35.9743 123 34.2037 123C32.4328 123 31.0629 122.48 30.0933 121.439ZM36.2292 119.67C36.709 119.134 36.9489 118.435 36.9489 117.573C36.9489 116.71 36.709 116.012 36.2292 115.476C35.7493 114.941 35.0742 114.673 34.2037 114.673C33.3332 114.673 32.6579 114.941 32.1782 115.476C31.6983 116.012 31.4584 116.71 31.4584 117.573C31.4584 118.435 31.6983 119.134 32.1782 119.67C32.6579 120.205 33.3332 120.473 34.2037 120.473C35.0742 120.473 35.7493 120.205 36.2292 119.67ZM47.8111 122.777H50.5561V112.368H47.9595L43.8936 118.346C43.9332 117.91 43.9529 117.335 43.9529 116.621V112.368H41.2077V122.777H43.8045L47.8705 116.815C47.8308 117.251 47.8111 117.821 47.8111 118.524V122.777ZM48.3303 111.104C47.6577 111.561 46.8415 111.789 45.8819 111.789C44.9224 111.789 44.1062 111.561 43.4335 111.104V109.231C44.1162 109.647 44.9322 109.855 45.8819 109.855C46.8317 109.855 47.6479 109.647 48.3303 109.231V111.104ZM58.3466 122.777H55.6014V112.368H63.0951V114.822H58.3466V122.777ZM64.2376 112.368H68.3481C71.3652 112.368 72.8738 113.558 72.8738 115.937C72.8738 118.297 71.3652 119.486 68.3481 119.506H66.9827V122.777H64.2376V112.368ZM68.4816 117.127C69.5302 117.127 70.0544 116.73 70.0544 115.937C70.0544 115.144 69.5302 114.748 68.4816 114.748H66.9827V117.127H68.4816ZM79.6552 120.398C79.2101 121.35 78.7055 122.021 78.1417 122.413C77.5779 122.804 76.92 123 76.1681 123C75.713 123 75.1591 122.906 74.5062 122.718V120.443C74.8721 120.582 75.2728 120.651 75.7081 120.651C76.4006 120.651 76.8506 120.413 77.0584 119.937L77.2217 119.58L73.1707 112.368H76.2125L78.4978 117.112L80.3675 112.368H83.4095L79.6552 120.398ZM87.0895 122.777H84.3444V112.368H93.6928V122.777H90.9477V114.822H87.0895V122.777ZM98.3967 122.777H95.6515V112.368H105V122.777H102.255V114.822H98.3967V122.777Z" fill="white"/>
</svg>
