<svg width="93" height="58" viewBox="0 0 93 58" fill="none" xmlns="http://www.w3.org/2000/svg">
<path fill-rule="evenodd" clip-rule="evenodd" d="M16.5788 0.133896C16.3993 0.211871 16.1301 0.485543 15.9057 0.817933C14.5812 2.77964 3.91808 21.0717 0.933843 26.5013L0 28.2004L0.134111 28.585C0.30932 29.0872 0.664957 29.3496 3.33684 30.9477C6.40564 32.7834 7.5257 33.3857 7.87099 33.3865C8.48669 33.3879 9.11719 32.728 9.96989 31.1897L10.4408 30.3402L11.6988 31.3568C13.4573 32.7777 13.8778 33.3074 15.5476 36.205L16.3788 37.6472L16.0811 38.0229C15.019 39.3632 14.948 41.2865 15.9126 42.5886C16.2937 43.103 17.1697 43.7959 17.6602 43.9708C18.1496 44.1454 19.4397 44.1387 20.047 43.9584C20.3212 43.877 20.5845 43.8237 20.6321 43.8398C20.6796 43.856 20.5591 44.1894 20.3643 44.5807C20.0169 45.2783 20.0101 45.3134 20.0101 46.3853C20.0101 47.429 20.0242 47.507 20.3215 48.1103C21.0227 49.5334 22.6091 50.3641 24.1003 50.0891C24.4085 50.0323 24.9767 49.8359 25.3628 49.6528C25.7489 49.4697 26.0788 49.3337 26.0958 49.3508C26.1129 49.3679 26.0804 49.5496 26.0238 49.7548C25.9671 49.96 25.9397 50.4698 25.9628 50.8878C25.9971 51.506 26.0624 51.7605 26.313 52.2525C27.032 53.6633 28.5787 54.5842 29.9195 54.3999C30.5779 54.3094 31.4931 53.852 32.1401 53.2901C32.4431 53.027 32.7099 52.8308 32.7331 52.854C32.7563 52.8772 32.728 53.1489 32.6701 53.4578C32.5071 54.3274 32.6136 55.3971 32.9271 56.0402C33.2437 56.6895 34.0113 57.4671 34.6415 57.7772C35.0434 57.9749 35.2325 58.0029 36.1452 57.9998C37.368 57.9956 37.8021 57.8463 38.524 57.1818C38.8587 56.8738 39.8766 55.699 40.1403 55.3165C40.152 55.2996 40.9663 55.5482 41.9499 55.8691C44.0833 56.5652 46.102 57.0983 47.9144 57.4443C49.6912 57.7835 51.8873 57.8087 53.0068 57.5028C54.43 57.114 55.3336 56.5297 57.0722 54.8741C58.2206 53.7806 58.3471 53.6872 58.6802 53.6872C59.1636 53.6872 60.6123 53.4343 61.2021 53.2468C62.6489 52.7871 63.963 51.2459 64.4171 49.4762C64.4959 49.1688 64.6025 48.8753 64.654 48.8239C64.7053 48.7725 65.1154 48.6716 65.5653 48.5996C67.0573 48.3607 68.0659 47.8824 68.9681 46.9853C69.6224 46.3348 70.0621 45.5823 70.3318 44.6514C70.454 44.23 70.5969 43.8334 70.6495 43.7701C70.702 43.7067 71.1605 43.6033 71.6683 43.5401C73.6683 43.2915 74.8992 42.5903 75.86 41.1522C76.4486 40.2712 76.6702 39.4968 76.6702 38.3199C76.6702 37.1019 76.4532 36.3853 75.7661 35.3332L75.3014 34.622L76.1295 34.0633C76.9933 33.4804 78.0147 32.6335 79.4042 31.3477L80.2243 30.5888L77.4189 25.7983C75.876 23.1636 73.1216 18.4623 71.2979 15.351L67.9821 9.6941L67.1547 9.89056C66.5371 10.0372 66.0145 10.0868 65.0935 10.0861C63.7414 10.0851 63.2732 10.0122 59.114 9.15444C54.9739 8.3006 54.9307 8.29643 50.3821 8.29814C48.0038 8.29909 45.7832 8.34889 44.8772 8.42155C41.8826 8.66164 38.931 9.19106 37.4265 9.75775C37.1394 9.86589 36.6531 10.1577 36.3458 10.4061C36.0384 10.6546 35.6327 10.973 35.4441 11.1138L35.1012 11.3698L34.3419 11.2325C33.9243 11.157 32.5295 10.9242 31.2425 10.7153C28.7294 10.3071 27.5786 10.0199 26.7207 9.58681C26.2411 9.34464 23.7658 7.90703 23.6772 7.81928C23.6583 7.8005 23.9252 7.32203 24.2704 6.7559C24.7483 5.97235 24.8981 5.64215 24.8981 5.37227C24.8981 4.88744 24.6973 4.44729 24.3382 4.14544C23.3174 3.28686 17.4721 -0.0144659 16.9987 4.77057e-05C16.9323 0.00213463 16.7434 0.062276 16.5788 0.133896ZM74.6165 0.640165C72.0444 1.9721 68.8726 3.92906 68.426 4.45952C68.2835 4.62885 68.1782 4.87084 68.1782 5.02906C68.1782 5.18198 68.4378 5.79999 68.7628 6.42095C69.9813 8.74834 77.0504 20.9602 80.9956 27.5533C83.9597 32.5068 84.5923 33.3872 85.1872 33.3872C85.8148 33.3872 92.4082 29.509 92.7942 28.9129C93.1427 28.3746 93.1152 28.2692 92.1866 26.5843C89.4342 21.5896 80.4507 6.13267 77.8098 1.84745C76.4993 -0.278842 76.4368 -0.302556 74.6165 0.640165ZM23.3836 11.0458C24.6192 11.7788 26.101 12.5312 26.7256 12.7426C27.4177 12.9769 30.3032 13.5482 31.7328 13.7339C33.1895 13.9233 33.2347 13.9599 32.84 14.6312C32.7104 14.8515 32.0594 15.8001 31.3933 16.7392C29.3163 19.6675 28.7364 20.6807 28.412 21.948C28.0974 23.1773 28.1692 23.6461 28.7573 24.2044C29.2308 24.6539 29.6867 24.7868 30.7352 24.7812C33.4126 24.7667 36.4882 23.3212 38.8553 20.9649C39.3831 20.4396 40.9631 18.5799 41.1753 18.2344C41.183 18.2219 41.859 18.2543 42.6778 18.3063C43.743 18.374 44.3483 18.4599 44.8064 18.6088C45.7872 18.9273 50.5666 21.353 53.3244 22.9318C58.6416 25.9761 62.17 28.301 67.7985 32.4694C71.8099 35.4401 73.1496 36.5535 73.5644 37.261C74.0196 38.0371 73.8436 39.0397 73.1044 39.8811C72.6379 40.412 72.1722 40.5922 71.2628 40.5933C70.1036 40.5947 70.269 40.678 61.7241 35.7894C55.8996 32.4571 55.1657 32.0591 54.844 32.0591C54.4201 32.0591 53.7656 32.4206 53.596 32.7484C53.4138 33.1006 53.4575 33.9257 53.6761 34.2591C53.8594 34.5387 62.3739 39.6009 67.2161 42.3091L67.6303 42.5409L67.5878 43.2524C67.5024 44.6802 66.7018 45.4981 65.1785 45.7137C63.9259 45.8909 63.5632 45.737 58.0225 42.6775C53.5533 40.2097 50.9663 38.889 50.6008 38.889C50.2213 38.889 49.7951 39.1516 49.5609 39.5296C49.3493 39.871 49.305 40.5536 49.474 40.869C49.6682 41.2319 51.0048 42.052 55.9819 44.8618C59.9305 47.0911 61.2255 47.8818 61.4764 48.2165C61.6489 48.4467 61.6495 48.4746 61.4922 48.9551C61.2827 49.5954 60.8438 50.2319 60.4832 50.4182C60.3277 50.4986 59.8347 50.609 59.3877 50.6638C57.9631 50.8378 57.4467 50.6868 53.9888 49.0843C48.4876 46.5348 47.3526 46.0551 46.5802 45.9529C46.1803 45.9001 46.0708 45.9227 45.8385 46.1054C45.6887 46.2235 45.5071 46.4609 45.4352 46.6331C45.2621 47.0467 45.2683 47.8072 45.4466 48.0617C45.6445 48.3441 46.7105 48.9056 49.9075 50.4116C52.2131 51.4978 54.7526 52.7603 54.8744 52.8809C55.0568 53.0617 53.8926 53.9701 52.8397 54.4684C52.1924 54.7748 52.1705 54.778 50.8092 54.7735C49.4122 54.7688 48.378 54.6198 46.4907 54.1513C44.378 53.6268 42.362 52.9581 42.362 52.7819C42.362 52.7477 42.5158 52.4706 42.7039 52.1661C43.1143 51.5018 43.26 50.5591 43.131 49.4061C42.9891 48.1383 42.3849 47.3302 41.1281 46.7276C40.5715 46.4608 40.423 46.4318 39.6095 46.4311C38.8222 46.4305 38.6368 46.4637 38.1477 46.6926C37.8395 46.8369 37.574 46.9415 37.5577 46.9251C37.5413 46.9088 37.8057 46.4929 38.1453 46.0008C38.9089 44.8944 39.0762 44.3717 39.0222 43.2619C38.9728 42.2481 38.6801 41.5559 38.0235 40.8996C37.3322 40.2087 36.6218 39.9063 35.5757 39.858C34.8719 39.8256 34.6297 39.8537 34.1995 40.0178C33.9124 40.1274 33.6463 40.217 33.6081 40.217C33.57 40.2171 33.6839 39.9503 33.8613 39.6242C34.8753 37.7606 34.6186 36.1115 33.0985 34.7231C32.4171 34.1007 31.7288 33.8394 30.7352 33.826C30.0813 33.8172 29.9079 33.8515 29.4858 34.0733C28.7719 34.4483 28.0104 35.1957 26.3871 37.1147C25.5943 38.052 24.8684 38.9094 24.7741 39.02C24.6058 39.2175 24.6041 39.2135 24.6792 38.7942C24.7213 38.5594 24.7554 38.0045 24.7551 37.561C24.7545 36.8515 24.7179 36.6775 24.4506 36.1121C23.7221 34.5719 22.1686 33.6978 20.6101 33.9514C20.0415 34.0439 19.5072 34.2811 18.8427 34.736C18.4694 34.9915 18.4168 35.0037 18.2257 34.8776C18.1109 34.8018 17.8202 34.4034 17.5797 33.9924C17.3393 33.5812 16.8948 32.8197 16.592 32.3001C15.9383 31.178 15.4897 30.6778 14.2204 29.6559C13.0472 28.7114 12.3636 28.1086 12.1984 27.8729C12.0871 27.7139 12.1309 27.5897 12.5714 26.8168C14.2714 23.8333 21.3644 11.7083 21.8517 10.9527C22.0697 10.6147 22.2291 10.4368 22.3176 10.4324C22.3339 10.4316 22.8136 10.7077 23.3836 11.0458Z" fill="#1A911E"/>
</svg>
