<svg width="68" height="61" viewBox="0 0 68 61" fill="none" xmlns="http://www.w3.org/2000/svg">
<path fill-rule="evenodd" clip-rule="evenodd" d="M16.6639 39.4054H8.36976C8.2003 39.4054 6.85763 38.4213 7.87381 37.4125C7.99188 37.2952 8.47968 36.9056 8.64169 36.9056H22.7145V23.4202C22.7145 23.3136 23.164 22.565 23.8703 22.565C24.7152 22.565 24.9905 22.857 25.1158 23.5964C25.3304 24.8638 25.23 34.2981 25.23 36.1163C25.23 36.8085 25.1968 38.3372 25.0218 38.8093C24.8452 39.2859 24.6293 39.2339 24.0465 39.3128L16.6639 39.4054L16.6639 39.4054ZM0.6875 38.3891V37.3003C0.6875 35.3431 1.33528 32.261 2.04714 30.5246C2.30638 29.8923 2.52441 29.2659 2.83983 28.6603C3.16008 28.0455 3.42073 27.4587 3.78509 26.8779C4.13726 26.3165 4.46138 25.7711 4.83481 25.2623C5.22781 24.7268 5.60266 24.2495 6.03689 23.7283L6.65183 23.0077C6.77681 22.8824 6.87478 22.8105 6.99006 22.6771C7.30947 22.3075 7.60974 21.9542 8.02987 21.644L9.49614 20.4315C12.1716 18.3968 14.3952 17.3884 17.6581 16.3566C20.3533 15.5044 21.8477 15.5262 24.5501 15.5262C28.9788 15.5262 33.9502 16.9912 37.5249 19.5489C38.0911 19.954 38.6051 20.3012 39.1458 20.7434C40.8532 22.1395 41.0953 22.4723 42.3797 23.8637L43.2852 25.0267C44.8626 27.1239 46.2775 30.1525 46.9034 32.5772C48.0837 37.1494 47.7656 41.537 46.2125 45.9597C45.1242 49.0586 42.8863 52.2185 40.6115 54.4203L39.8283 55.1097C38.7563 56.1115 37.7881 56.7206 36.5841 57.4963C35.9121 57.9294 34.523 58.6284 33.7952 58.9421C24.91 62.7715 14.4271 60.8899 7.77492 54.4532L6.66007 53.3612C6.5234 53.1954 6.51017 53.1652 6.3469 53.0063C6.18022 52.8442 6.15217 52.776 6.00547 52.6131L5.07732 51.4719C4.25054 50.4112 4.04013 49.9181 3.42002 48.9312C2.5039 47.4732 1.50574 44.5931 1.14596 42.843C0.738939 40.8632 0.691828 40.0025 0.6875 38.3891L0.6875 38.3891Z" fill="#1A911E"/>
<path fill-rule="evenodd" clip-rule="evenodd" d="M29.445 9.14384C29.445 10.5759 30.1126 11.6896 30.9004 12.6693L31.7665 13.5416C32.5395 14.1352 32.4203 14.2335 33.731 14.9956C34.7893 15.6108 36.0536 16.2038 37.2369 16.6028C38.6773 17.0885 39.7308 17.3914 41.2799 17.6902C44.4819 18.3077 46.0315 18.3534 49.2965 18.3534C51.0535 18.3534 53.7632 18.0616 55.455 17.7342C58.841 17.0789 64.4473 15.1407 66.4679 11.9448C68.1272 9.3205 67.2166 6.43574 64.7579 4.57677L63.7644 3.82776C63.3928 3.58388 63.0648 3.39776 62.6771 3.16951C62.007 2.77511 61.0644 2.35554 60.2906 2.05794C56.9925 0.789488 53.0483 0.085412 49.0567 0H47.4283C42.4598 0.104258 37.5441 1.17753 33.8344 3.3264C32.7909 3.93089 31.7954 4.70088 30.992 5.57546C30.2317 6.40304 29.4449 7.91425 29.4449 9.1438L29.445 9.14384Z" fill="#1A911E"/>
<path fill-rule="evenodd" clip-rule="evenodd" d="M48.8884 20.1951C46.1736 20.1951 44.1286 19.9649 41.5947 19.5559C41.2749 19.5043 40.8888 19.4121 40.5942 19.4057C40.6891 19.7494 41.5113 20.5233 41.801 20.8036L43.7374 22.811C43.8739 22.9593 43.8933 23.0183 44.0445 23.1718L44.9325 24.286C45.1283 24.5657 45.3045 24.7961 45.4892 25.063L46.7091 25.1325C52.2258 25.5511 61.0022 24.0523 64.8812 20.5399C65.0683 20.3706 65.1814 20.3414 65.3581 20.1462C65.5275 19.9591 65.5747 19.8759 65.7664 19.6861C66.8451 18.6174 67.3122 17.21 67.3122 15.5903C67.3122 14.9623 67.079 14.7246 67.0403 14.2747C66.7938 14.4344 65.8239 15.4223 64.5218 16.1794L62.5756 17.2564C61.9899 17.5762 59.9032 18.3712 59.3667 18.5589C58.6698 18.8027 57.8391 19.0329 57.0604 19.2217C54.4904 19.8452 51.6951 20.1951 48.8884 20.1951V20.1951Z" fill="#1A911E"/>
<path fill-rule="evenodd" clip-rule="evenodd" d="M46.7131 27.0362L48.1665 30.761C48.3023 31.1552 48.4547 31.709 48.6167 32.0357C49.7591 32.0357 50.8163 31.9015 51.88 31.8383C54.6081 31.6763 57.9764 30.8545 60.3782 29.9307C61.1465 29.6352 62.0291 29.2464 62.7193 28.841L64.312 27.8166C65.5609 26.9176 67.3125 25.0079 67.3125 23.0892V22.3319C67.3065 21.8859 67.2659 22.0514 67.0406 21.1157C66.8529 21.1642 65.4669 22.3558 65.2349 22.5261C62.6864 24.3966 59.1051 25.7435 55.9305 26.2849C55.0118 26.4415 53.9785 26.6443 53.0334 26.7049C51.0557 26.8318 49.5854 26.9653 47.5267 26.9681C47.1331 26.9686 47.0534 27.0361 46.7132 27.0361L46.7131 27.0362Z" fill="#1A911E"/>
<path fill-rule="evenodd" clip-rule="evenodd" d="M49.0923 33.8773L49.5002 38.811C50.6037 38.811 51.8743 38.6961 52.8436 38.5596C56.0902 38.102 59.21 37.4761 62.0326 36.0047C62.2483 35.8923 62.4237 35.825 62.6184 35.7164C62.9857 35.5115 63.3801 35.2756 63.7383 35.0239C63.9371 34.8842 64.0772 34.7987 64.2537 34.6674C65.4799 33.7559 66.4898 32.6225 67.081 31.2195C67.4035 30.4541 67.3107 28.9288 67.1083 28.0884C66.6094 28.0991 66.0308 28.8073 65.3603 29.2914C64.7072 29.763 63.403 30.5702 62.5996 30.9618C59.6865 32.3817 55.1632 33.4399 51.8818 33.616C50.9866 33.6641 49.9637 33.8071 49.0924 33.8772L49.0923 33.8773Z" fill="#1A911E"/>
</svg>
