<svg width="45" height="44" viewBox="0 0 45 44" fill="none" xmlns="http://www.w3.org/2000/svg">
<path fill-rule="evenodd" clip-rule="evenodd" d="M28.4714 2.33124C9.45234 11.4952 6.08647 13.1196 6.06039 13.1468C6.04422 13.1637 6.02402 13.6726 6.01549 14.2776L6 15.3776L7.15612 15.3895L8.31224 15.4015V17.0165V18.6315L6.68469 18.6433L5.05714 18.6551L5.04538 20.3276L5.03362 22H6.71783H8.40204V20.3163V18.6327H8.69388H8.98571V20.3163V22H10.6694H12.3531V20.3163V18.6327H10.6694H8.98571V17.0163V15.4H19.649H30.3122V16.5449V17.6898H31.8163H33.3204V30.8449V44H35.0939H36.8673V30.8449V17.6898H38.4837H40.1V16.5449V15.4H42.3H44.5V14.2776V13.1551H42.3H40.1V11.9878V10.8204H38.4837H36.8673V5.4102V0L35.0827 0.00282857L33.298 0.00565714L28.4714 2.33124ZM33.2909 2.25612C33.3069 2.53395 33.3201 4.57452 33.3202 6.79082L33.3204 10.8204H31.8163H30.3122V11.9878V13.1551L20.6929 13.1489C15.4022 13.1455 10.6593 13.1304 10.1531 13.1152L9.23265 13.0878L10.9163 12.2848C14.4913 10.5797 22.625 6.73065 32.0184 2.29878C32.6481 2.00169 33.1854 1.7569 33.2125 1.75484C33.244 1.75241 33.2723 1.93331 33.2909 2.25612ZM0.5 30.8444V44H5.43878H10.3776V36.2551V28.5102H7.12263H3.86771L3.8563 23.1112L3.8449 17.7122L2.17245 17.7005L0.5 17.6887V30.8444ZM15.9 31.3163V44H23.1061H30.3122V31.3163V18.6327H23.1061H15.9V31.3163ZM38.9327 31.3163V44H41.7163H44.5V31.3163V18.6327H41.7163H38.9327V31.3163ZM5.03469 24.8735V26.5347H6.71837H8.40204V24.8735V23.2122H6.71837H5.03469V24.8735ZM8.98571 24.8735V26.5347H10.6694H12.3531V24.8735V23.2122H10.6694H8.98571V24.8735Z" fill="white"/>
</svg>
