<svg width="43" height="46" viewBox="0 0 43 46" fill="none" xmlns="http://www.w3.org/2000/svg">
<path fill-rule="evenodd" clip-rule="evenodd" d="M20.3668 0.0223346C17.9447 0.254432 15.6933 1.1326 13.7749 2.59348C12.4954 3.56789 11.3612 4.82691 10.5179 6.20901C8.94467 8.78719 8.29865 11.879 8.71715 14.8269C9.15002 17.876 10.7449 21.7147 13.4144 26.1327C14.9987 28.7546 17.0765 31.7277 19.2831 34.5299C20.2094 35.7063 21.4447 37.192 21.4965 37.192C21.5483 37.192 22.7835 35.7063 23.7099 34.5299C27.1621 30.1458 29.931 25.8878 31.7887 22.1066C32.5544 20.5482 33.0851 19.2769 33.5037 17.9984C34.4445 15.1256 34.6292 12.9689 34.1461 10.5007C33.4803 7.09986 31.4239 4.02212 28.5419 2.11299C26.8566 0.996704 25.1691 0.36887 23.0458 0.0682808C22.6086 0.00639473 20.8482 -0.023776 20.3668 0.0223346ZM22.362 8.51572C24.2476 8.89223 25.6946 10.3951 26.0337 12.3291C26.1094 12.7611 26.1097 13.4974 26.0342 13.9209C25.9052 14.6447 25.6027 15.3557 25.1792 15.93C24.7253 16.5455 24.202 16.9847 23.5148 17.3269C22.8332 17.6663 22.2599 17.801 21.4965 17.801C20.7331 17.801 20.1598 17.6663 19.4782 17.3269C18.1333 16.6572 17.2237 15.4265 16.9561 13.914C16.8753 13.4579 16.8828 12.722 16.973 12.2547C17.3603 10.247 18.9196 8.74384 20.8994 8.46964C21.2161 8.4258 22.0419 8.45179 22.362 8.51572ZM5.97399 30.7257C5.95863 30.7663 4.60819 34.2049 2.97304 38.367C1.33785 42.529 0 45.9491 0 45.9672C0 45.989 7.20194 46 21.5 46H43L42.9811 45.9261C42.9707 45.8854 41.6198 42.4357 39.9791 38.2601L36.9959 30.6681L34.4186 30.6602L31.8413 30.6523L31.6799 30.9056C31.2007 31.6579 30.1611 33.1586 29.3337 34.2926C29.053 34.6773 28.8234 34.999 28.8234 35.0074C28.8234 35.0159 30.0043 35.0229 31.4476 35.0229H34.0718L35.3531 38.2848C36.0578 40.0789 36.6344 41.5579 36.6344 41.5714C36.6344 41.5849 29.8224 41.596 21.4965 41.596C13.1706 41.596 6.35857 41.5849 6.35857 41.5714C6.35857 41.5579 6.93517 40.0789 7.63987 38.2848L8.92118 35.0229H11.5454C12.9887 35.0229 14.1696 35.0158 14.1696 35.0072C14.1696 34.9987 13.9398 34.677 13.6589 34.2924C12.8484 33.1828 11.7969 31.6648 11.3131 30.9058L11.1517 30.6526L8.57681 30.6521L6.00191 30.6517L5.97399 30.7257Z" fill="white"/>
</svg>
