<svg width="43" height="45" viewBox="0 0 43 45" fill="none" xmlns="http://www.w3.org/2000/svg">
<path d="M28.012 4.59768H25.3099C25.0001 4.59766 24.6982 4.49956 24.4475 4.31744C24.1968 4.13533 24.0101 3.87853 23.9143 3.58385L23.0794 1.01387C22.9836 0.719175 22.797 0.462358 22.5464 0.280227C22.2957 0.0980953 21.9938 0 21.6839 0C21.3741 0 21.0721 0.0980953 20.8215 0.280227C20.5708 0.462358 20.3842 0.719175 20.2884 1.01387L19.4534 3.58385C19.3576 3.87853 19.171 4.13533 18.9203 4.31745C18.6696 4.49957 18.3677 4.59767 18.0579 4.59768H15.3558C15.046 4.59778 14.7441 4.69592 14.4935 4.87805C14.2429 5.06018 14.0564 5.31695 13.9607 5.61158C13.865 5.90621 13.8649 6.22359 13.9606 6.51823C14.0563 6.81288 14.2428 7.06969 14.4933 7.25186L16.6795 8.84004C16.9301 9.02219 17.1167 9.279 17.2124 9.57368C17.3082 9.86836 17.3082 10.1858 17.2125 10.4805L16.3775 13.0504C16.2817 13.3451 16.2817 13.6625 16.3775 13.9572C16.4732 14.2519 16.6598 14.5087 16.9105 14.6909C17.1611 14.873 17.463 14.9711 17.7729 14.9711C18.0827 14.9711 18.3846 14.8731 18.6353 14.691L20.8213 13.1026C21.0721 12.9205 21.374 12.8224 21.6838 12.8224C21.9937 12.8224 22.2956 12.9205 22.5463 13.1026L24.7324 14.691C24.9831 14.8731 25.285 14.9711 25.5949 14.9711C25.9047 14.9711 26.2066 14.873 26.4573 14.6909C26.708 14.5087 26.8945 14.2519 26.9903 13.9572C27.086 13.6625 27.086 13.3451 26.9902 13.0504L26.1557 10.4808C26.0599 10.1861 26.06 9.86866 26.1557 9.57398C26.2514 9.2793 26.438 9.02249 26.6886 8.84034L28.8741 7.25186C29.1247 7.0697 29.3111 6.81292 29.4068 6.5183C29.5025 6.22369 29.5025 5.90634 29.4068 5.61173C29.3111 5.31711 29.1246 5.06034 28.8741 4.87819C28.6235 4.69603 28.3218 4.59784 28.012 4.59768Z" fill="white"/>
<path d="M17.7361 18.9156H25.2624C25.5083 18.9156 25.7518 18.9641 25.979 19.0582C26.2062 19.1523 26.4127 19.2903 26.5866 19.4642C26.7605 19.638 26.8984 19.8445 26.9925 20.0717C27.0866 20.2989 27.1351 20.5424 27.1351 20.7884V42.4734C27.1351 42.9699 26.9378 43.4462 26.5867 43.7973C26.2355 44.1484 25.7593 44.3457 25.2627 44.3457H17.7369C17.2402 44.3457 16.7639 44.1484 16.4127 43.7972C16.0615 43.446 15.8642 42.9697 15.8642 42.473V20.788C15.8642 20.2915 16.0614 19.8153 16.4124 19.4642C16.7634 19.1131 17.2396 18.9158 17.7361 18.9156Z" fill="white"/>
<path d="M2.37195 25.4913H9.89788C10.1438 25.4913 10.3873 25.5397 10.6145 25.6337C10.8417 25.7278 11.0482 25.8657 11.2221 26.0396C11.396 26.2135 11.5339 26.4199 11.628 26.6471C11.7221 26.8743 11.7706 27.1178 11.7706 27.3637V42.4737C11.7706 42.9703 11.5733 43.4467 11.2221 43.7979C10.8709 44.1491 10.3946 44.3464 9.89788 44.3464H2.3727C1.87603 44.3464 1.3997 44.1491 1.0485 43.7979C0.697302 43.4467 0.5 42.9703 0.5 42.4737V27.3637C0.5 26.8672 0.69721 26.391 1.04826 26.0399C1.39931 25.6887 1.87544 25.4914 2.37195 25.4913Z" fill="white"/>
<path d="M33.1011 25.4913H40.6273C41.124 25.4913 41.6003 25.6886 41.9515 26.0398C42.3027 26.391 42.5 26.8674 42.5 27.364V42.4734C42.5 42.9701 42.3027 43.4464 41.9515 43.7976C41.6003 44.1488 41.124 44.3461 40.6273 44.3461H33.1019C32.6052 44.3461 32.1289 44.1488 31.7777 43.7976C31.4265 43.4464 31.2292 42.9701 31.2292 42.4734V27.3634C31.2292 26.867 31.4265 26.3908 31.7775 26.0398C32.1286 25.6887 32.6047 25.4914 33.1011 25.4913Z" fill="white"/>
</svg>
