<svg width="60" height="56" viewBox="0 0 60 56" fill="none" xmlns="http://www.w3.org/2000/svg">
<path fill-rule="evenodd" clip-rule="evenodd" d="M1.51379 6.61729e-05C1.31565 -0.00170044 1.11911 0.0345946 0.935528 0.106855C0.751946 0.179115 0.584956 0.285908 0.444204 0.421066C0.303452 0.556224 0.191728 0.717068 0.115485 0.894308C0.0392425 1.07155 -8.38445e-06 1.26167 1.34341e-09 1.45369L1.34341e-09 42.3239C4.79702e-05 42.6009 0.0817939 42.8722 0.235609 43.1057C0.389425 43.3393 0.608903 43.5253 0.868193 43.642L12.2099 48.7472C12.2279 47.7128 12.2975 46.6754 12.4595 45.6538L2.99998 41.3959V3.73182L19.3648 11.0988L19.4344 22.8185C19.9733 22.2913 20.5747 21.8277 21.226 21.4376L21.166 11.3099L38.3715 3.56436L38.4639 19.1728C39.0246 18.7399 39.6249 18.3575 40.2573 18.0303L40.1703 3.35853L56.9995 10.9342V27.6986C57.0013 27.8271 57.0025 27.9562 56.9995 28.0847V38.4915C57.8791 39.1369 58.6735 39.887 59.3329 40.7505C59.5729 41.0621 59.7925 41.3842 59.9995 41.7133V10.0068C59.9995 9.72978 59.9177 9.45852 59.7639 9.22498C59.6101 8.99145 59.3906 8.80538 59.1313 8.68869L40.1319 0.135544C39.9294 0.0442867 39.7084 -0.00199874 39.4851 6.61729e-05C39.2715 0.00188391 39.0608 0.0478748 38.8671 0.134963L20.4994 8.40377L2.13178 0.135544C1.93809 0.0482558 1.72739 0.0020662 1.51379 6.61729e-05ZM19.5124 36.175L19.5148 36.4425C19.5784 36.4192 19.6396 36.3884 19.7038 36.3657C19.6372 36.3047 19.5778 36.2378 19.5124 36.175Z" fill="#1A911E"/>
<path d="M45.5996 19.0536C40.6286 19.0536 36.5997 22.9587 36.5997 27.7754C36.5997 32.5921 40.6286 36.4972 45.5996 36.4972C50.5693 36.4972 54.5995 32.5921 54.5995 27.7754C54.5995 22.9587 50.5693 19.0536 45.5996 19.0536ZM45.5996 37.7897C35.6577 37.7897 31.1997 42.1105 31.1997 51.7445V52.9074C31.2447 55.1984 32.2899 55.2658 34.4997 55.2332H56.6995C59.5165 55.2309 60.0187 55.2362 59.9995 52.9074V51.7445C59.9995 42.1105 55.5403 37.7897 45.5996 37.7897ZM26.3997 22.322C22.3276 22.322 19.0252 25.5223 19.0252 29.4692C19.0252 33.4155 22.3276 36.6146 26.3997 36.6146C30.4719 36.6146 33.7737 33.4155 33.7737 29.4686C33.7737 25.5223 30.4719 22.3226 26.3997 22.3226V22.322ZM26.3997 37.6729C18.2548 37.6729 14.6014 41.2139 14.6014 49.1065V50.0595C14.6386 51.9364 15.4948 51.9917 17.305 51.9649H28.7787C28.4859 47.2621 29.9193 42.2675 33.4893 39.0922C31.6821 38.1351 29.3343 37.6729 26.3997 37.6729Z" fill="#1A911E"/>
</svg>
