<svg width="30" height="30" viewBox="0 0 30 30" fill="none" xmlns="http://www.w3.org/2000/svg">
<path d="M25.966 0H4.03401C1.80609 0 0 1.80609 0 4.03401V25.966C0 28.1939 1.80609 30 4.03401 30H25.966C28.1939 30 30 28.1939 30 25.966V4.03401C30 1.80609 28.1939 0 25.966 0Z" fill="#29A71A"/>
<path d="M5.67139 23.9304L7.5039 19.1483C6.29393 17.2647 5.81778 15.0024 6.16584 12.7909C6.5139 10.5794 7.66195 8.57266 9.392 7.1518C11.122 5.73095 13.3136 4.99486 15.5506 5.08331C17.7876 5.17176 19.9142 6.07859 21.5267 7.63161C23.1391 9.18464 24.1251 11.2757 24.2975 13.5078C24.4699 15.7399 23.8166 17.9575 22.4617 19.7397C21.1067 21.5219 19.1446 22.7444 16.9477 23.1753C14.7508 23.6061 12.4722 23.2152 10.5445 22.0768L5.67139 23.9304ZM10.9244 20.7013L11.0896 20.8047C12.6996 21.7986 14.6204 22.1618 16.4821 21.8244C18.3439 21.487 20.015 20.4728 21.1739 18.9771C22.3327 17.4815 22.8974 15.61 22.7591 13.723C22.6208 11.836 21.7894 10.0668 20.4249 8.75601C19.0604 7.44524 17.2593 6.68554 15.3682 6.62314C13.4772 6.56073 11.6299 7.20005 10.1819 8.41801C8.734 9.63597 7.78777 11.3465 7.52539 13.2203C7.26301 15.0941 7.70304 16.9987 8.76076 18.5675L8.87502 18.7378L7.64946 21.9487L10.9244 20.7013Z" fill="#FEFEFE"/>
<path d="M19.4497 15.8986C18.6062 15.462 17.7096 15.0573 17.7031 15.0537C17.3945 14.9081 17.1776 15.0704 17.1106 15.1672L16.4091 16.0405C16.2199 16.2065 15.9564 16.0405 15.9273 16.0231C14.7513 15.5372 13.7686 14.6766 13.1319 13.5749C12.9864 13.3885 13.1138 13.267 13.1414 13.2437C13.4325 12.9919 13.7011 12.5633 13.7112 12.5465C13.8852 12.2743 13.7294 11.9359 13.7243 11.925L12.9711 10.182C12.7928 9.84214 12.3889 9.90036 12.3831 9.90255H12.084C11.9866 9.88717 11.887 9.89398 11.7926 9.92246C11.6982 9.95093 11.6115 10.0004 11.5389 10.067C11.1908 10.3391 10.9199 10.6973 10.7529 11.1063C10.6016 11.5717 10.5596 12.0657 10.6302 12.55C10.7008 13.0343 10.8819 13.4958 11.1597 13.8987C12.4537 15.994 13.6989 16.8323 13.7484 16.8644C15.495 18.1409 17.2475 18.3199 17.3144 18.3257C17.4121 18.3389 17.5106 18.3455 17.6092 18.3454C17.915 18.3406 18.2169 18.2755 18.4976 18.154C18.7783 18.0325 19.0324 17.8569 19.2452 17.6373C19.6513 17.2872 19.7146 16.4983 19.7168 16.4575C19.719 16.0194 19.4533 15.9001 19.4497 15.8986Z" fill="#FEFEFE"/>
</svg>
