<svg width="16" height="16" viewBox="0 0 16 16" fill="none" xmlns="http://www.w3.org/2000/svg">
<path d="M4.82097 6.23992L6.41407 8.51206L7.53108 7.33392L5.86473 5.53304C6.57888 4.57369 6.39577 2.99161 5.3337 1.69565C4.08852 0.164064 2.09255 -0.425011 0.88399 0.399691C-0.324571 1.22439 -0.287943 3.14309 0.957241 4.67468C2.03762 5.98747 3.63072 6.59337 4.82097 6.23992Z" fill="#030A1B"/>
<path d="M9.56403 9.53845L8.35547 11.272L11.2853 15.4292C11.7065 16.0351 12.6037 16.1866 13.2446 15.749L13.3545 15.6648C13.9771 15.2272 14.087 14.4025 13.5743 13.8471L9.56403 9.53845Z" fill="#030A1B"/>
<path d="M15.9015 1.81374C15.7366 1.62861 15.4254 1.64543 15.2789 1.83057C15.2789 1.83057 13.1913 4.28785 12.6054 4.9779C12.5138 5.07889 12.349 5.09571 12.2391 5.02839C12.1293 4.94424 12.0927 4.80959 12.1842 4.69178L14.6929 1.44347C14.8028 1.30882 14.8028 1.10686 14.6746 0.972212C14.5098 0.787075 14.1985 0.803901 14.052 0.989038C14.052 0.989038 11.9645 3.44631 11.3785 4.13637C11.287 4.23735 11.1222 4.25418 11.0123 4.18686C10.9024 4.10271 10.8658 3.96806 10.9573 3.85025C11.525 3.12653 13.4843 0.585109 13.4843 0.585109C13.6308 0.399972 13.5576 0.130673 13.3195 0.0296896C13.1547 -0.037633 12.9533 0.012861 12.8251 0.147506L10.0051 3.47997L9.63892 3.91757C9.27269 4.372 9.10788 4.91058 9.18113 5.38184L9.34593 6.35802L2.33262 13.8308C1.81989 14.3862 1.92976 15.2109 2.55236 15.6485L2.66222 15.7327C3.28481 16.1703 4.18208 16.0188 4.62156 15.4129L10.408 7.1154L11.4884 6.98075C12.0011 6.91343 12.5138 6.61047 12.8984 6.15605L13.2646 5.71845L15.9198 2.285C16.0296 2.15035 16.0296 1.94839 15.9015 1.81374Z" fill="#030A1B"/>
</svg>
