<svg width="61" height="65" viewBox="0 0 61 65" fill="none" xmlns="http://www.w3.org/2000/svg">
<path fill-rule="evenodd" clip-rule="evenodd" d="M30.4398 1.40212V4.06173C27.3903 4.06173 24.874 4.49344 22.2799 5.24476C20.1577 5.85929 19.4732 6.20901 17.5498 7.06154C15.679 7.89057 13.9502 9.06951 12.3187 10.2869C8.67817 13.0035 4.86526 17.6621 3.15125 21.8511C2.41237 23.6569 1.67971 25.5275 1.26802 27.4696C0.111031 32.9279 0.265296 38.665 2.11162 43.9149C2.97095 46.3581 4.07296 48.6685 5.50602 50.8182C6.62901 52.5026 7.92122 54.0705 9.34982 55.4989C9.51399 55.6631 9.6294 55.7779 9.79241 55.9427C9.99292 56.1455 10.1105 56.2042 10.3053 56.3845C10.6463 56.7 10.9288 56.999 11.3047 57.2946C14.4536 59.7694 17.1188 61.4424 20.9513 62.7193C23.3013 63.5023 26.2502 64.2054 28.8004 64.2813C29.4802 64.3016 30.0077 64.3474 30.644 64.3474C35.0813 64.3474 39.475 63.2979 43.4872 61.4374L45.3458 60.4999C46.5144 59.8069 47.6574 59.1191 48.7002 58.2623C49.1991 57.8524 49.7454 57.4896 50.2001 57.0344L51.6652 55.6353C55.5852 51.7154 57.5696 48.0017 59.2607 42.8399L59.6668 41.3363C60.116 39.2691 60.4799 37.0936 60.4674 34.6911C60.4562 32.5038 57.836 31.4583 56.3015 32.9928C55.5177 33.7766 55.5562 34.4447 55.5381 35.9122C55.5323 36.3958 55.4398 37.0899 55.3703 37.5856C55.2861 38.185 55.2133 38.6625 55.108 39.2329C54.937 40.1597 54.6413 41.2636 54.3512 42.1589C54.0616 43.054 53.6961 44.0142 53.2842 44.8426C52.4365 46.5469 51.7008 47.9407 50.5181 49.51C49.8816 50.3546 48.766 51.7099 47.9492 52.4651L46.4835 53.7954C44.2209 55.9749 40.0786 57.8053 37.2591 58.5512C33.2399 59.6144 29.0936 59.6802 25.0225 58.7844C24.1179 58.5854 23.3961 58.3721 22.5704 58.0995C22.162 57.9647 21.7837 57.8176 21.4272 57.6742C21.038 57.5178 20.6308 57.3637 20.277 57.1877C18.119 56.1143 16.3891 55.2069 14.4961 53.5572C14.3273 53.4101 14.2566 53.382 14.0885 53.2147L12.8272 52.021C11.7627 50.9563 10.8649 49.8201 9.96086 48.6132C8.80815 47.0744 7.90645 45.2559 7.19361 43.4696C7.0343 43.0703 6.90684 42.7525 6.76598 42.3287C4.77395 36.3307 5.05644 30.2491 7.3778 24.442C8.03721 22.7923 8.92744 21.3299 9.89791 19.8698C10.3285 19.222 10.7588 18.6786 11.2542 18.0891C11.4007 17.9149 11.4413 17.8537 11.5991 17.6839C11.7615 17.509 11.7982 17.4159 11.9729 17.2393C12.1231 17.0874 12.2356 16.9877 12.3848 16.8329L13.1647 16.0441C13.3176 15.9164 13.4345 15.7812 13.5769 15.638L14.4023 14.8949C14.991 14.4165 15.5678 13.9759 16.1851 13.5405C20.2074 10.7031 24.9512 8.97178 30.5068 8.97178C30.5068 9.59001 30.3792 11.5869 30.618 12.066C31.0415 12.9164 32.1357 11.7155 32.8408 11.1012C33.4132 10.6024 33.9523 10.1391 34.5406 9.66384C35.4017 8.96829 36.2065 8.19366 37.0843 7.502C37.7818 6.95235 37.8414 6.04445 37.1332 5.48276L31.9547 1.25C31.7472 1.08038 31.284 0.651978 30.9842 0.651978C30.6391 0.651978 30.4386 1.02132 30.4386 1.40212H30.4398Z" fill="#148C18"/>
<path fill-rule="evenodd" clip-rule="evenodd" d="M36.1 43.4793C36.1 44.2154 35.5572 45.4822 35.3411 46.1301C35.202 46.5477 35.0656 46.9566 34.9149 47.4089C34.7785 47.8177 34.6258 48.3917 34.4631 48.7303L21.2925 44.2382C20.863 44.095 19.7093 43.6477 19.3234 43.6157C19.3335 43.162 19.8084 42.0647 19.9632 41.5956C21.0708 38.2417 20.7749 38.3145 24.1484 37.5972C25.6094 37.2865 27.1097 36.9576 28.6254 36.6186C29.6815 36.3823 29.6403 36.1507 29.9708 35.2362C30.0466 35.0264 30.6442 33.2828 30.6442 33.1816C30.6442 32.5354 29.5418 31.5113 29.1439 30.9994C28.9588 30.7612 28.7582 30.5422 28.5513 30.2962C28.3524 30.06 28.1989 29.8486 27.9997 29.6201C27.8051 29.3969 27.6106 29.1744 27.439 28.9533C27.0234 28.4186 25.3176 26.6576 25.3341 26.0979C25.3582 25.2844 26.9292 21.3776 27.1663 20.3605C27.7555 20.4979 28.473 20.785 29.067 20.983C30.407 21.4295 41.9782 25.4425 42.374 25.4754C42.0835 26.0808 41.0318 29.6405 40.693 30.3413C40.074 31.6215 39.3901 31.6116 37.9411 31.9541C37.353 32.0932 36.7243 32.2164 36.1544 32.3497C34.9516 32.6314 33.7876 32.8424 32.5791 33.1389C31.7705 33.3372 31.7738 33.5729 31.5393 34.2813C31.351 34.8503 31.1674 35.3318 30.9759 35.9003C30.571 37.1027 30.9828 37.0971 32.2222 38.6277L35.1981 42.1987C35.3905 42.4194 36.0998 43.1923 36.0998 43.4793H36.1ZM24.2339 18.9284C24.2339 19.432 24.8365 19.5807 25.2568 19.6786C25.0695 20.0687 24.8639 20.8218 24.72 21.2558C24.3032 22.5111 23.2791 25.0421 23.2791 26.1573C23.2791 27.3399 24.1233 28.1645 24.69 28.8381L28.4114 33.3374L28.0854 34.442C27.9889 34.6922 28.0613 34.624 27.801 34.7031C26.4816 35.1033 22.4011 35.7406 21.1247 36.2786C19.3988 37.0058 18.9259 38.2273 18.4112 39.7711L17.3458 42.8657C17.012 42.8379 16.8163 42.6611 16.5274 42.6611C16.0135 42.6611 15.863 43.5657 15.6891 44.005C14.7893 46.2782 15.1361 46.1014 16.1447 46.4538C16.6067 46.6153 16.9753 46.7546 17.4565 46.9151L30.6866 51.4161C31.4728 51.6778 35.7029 53.1636 36.0998 53.1636C36.5203 53.1636 36.7445 52.1505 36.8758 51.7571C37.4048 50.1706 37.8451 49.7398 36.4408 49.4126C36.4499 49.0064 36.7606 48.354 36.8927 47.9549C37.0613 47.4445 37.1999 47.0326 37.3699 46.5226C38.2949 43.7486 38.7812 42.9673 36.4919 40.5642C35.9092 39.9524 34.401 38.027 33.6978 37.2207C33.5123 37.0079 33.1593 36.5187 32.9628 36.3872C33.5991 35.0612 32.9063 35.1402 34.127 34.8917C34.8985 34.7347 35.6054 34.563 36.367 34.4039C37.461 34.1754 39.6996 33.7351 40.6242 33.2737C42.7309 32.2226 42.7796 30.2636 43.6015 28.2038C43.7309 27.8791 43.8346 27.5393 43.9512 27.1894C44.0553 26.8772 44.2053 26.493 44.2836 26.1577C45.0919 26.5455 45.4789 26.5282 45.726 25.7588C46.5321 23.2502 46.9588 23.0759 45.6736 22.6535L42.0588 21.4262C41.4427 21.2206 40.8608 21.0499 40.2698 20.8284C39.1167 20.3961 37.8336 20.0532 36.6656 19.5908L25.9302 15.9304C25.1896 15.6968 25.0631 16.4002 24.8385 17.0782C24.7645 17.3017 24.2339 18.8101 24.2339 18.9286V18.9284Z" fill="#148C18"/>
<path fill-rule="evenodd" clip-rule="evenodd" d="M49.8076 15.5872C49.8076 16.2946 49.8278 16.5612 50.2288 17.1434C50.9263 18.1561 51.7435 19.5425 52.9446 19.5425C53.59 19.5425 53.7659 19.586 54.3336 19.2948C54.5537 19.1819 54.8554 18.9764 55.0085 18.8104C56.1919 17.5264 55.651 16.2396 54.7666 15.0607C54.3266 14.4739 53.9699 13.8569 53.2866 13.5402C51.5634 12.7415 49.8074 14.0758 49.8074 15.5872H49.8076Z" fill="#0C1B66"/>
<path fill-rule="evenodd" clip-rule="evenodd" d="M46.6705 12.7908C47.3279 12.7908 47.9535 12.5186 48.4247 12.09C48.5762 11.9521 48.8414 11.5689 48.9314 11.3692C49.5566 9.98257 48.9827 8.96838 47.898 8.15354C46.918 7.41719 46.3314 6.92603 45.17 6.92603C44.3289 6.92603 43.6135 7.50734 43.2714 8.02803C42.7631 8.80149 42.7319 10.0502 43.3782 10.832C43.7359 11.2645 44.1676 11.5334 44.6248 11.8359C45.168 12.1957 45.787 12.791 46.6705 12.791V12.7908Z" fill="#0C1B66"/>
<path fill-rule="evenodd" clip-rule="evenodd" d="M56.7635 28.1353C57.5871 28.1353 58.1152 28.0949 58.7608 27.473C59.3505 26.9051 59.4915 26.3158 59.4915 25.5439C59.4915 25.118 58.9436 23.3105 58.7765 22.9855C57.9302 21.3377 55.6503 21.1895 54.5793 22.6777C53.783 23.7842 54.2696 24.8038 54.5953 26.0075C54.6969 26.3832 54.7962 26.7302 54.9914 27.0434C55.2607 27.4749 56.0653 28.1355 56.7635 28.1355V28.1353Z" fill="#0C1B66"/>
</svg>
