<svg width="47" height="59" viewBox="0 0 47 59" fill="none" xmlns="http://www.w3.org/2000/svg">
<path d="M46.0341 7.48389L24.4647 0.133301C24.2045 0.0444335 23.8553 0 23.5062 0C23.1571 0 22.808 0.0444335 22.5477 0.133301L0.978394 7.48389C0.451538 7.66162 0.0198975 8.271 0.0198975 8.82959V39.4507C0.0198975 40.0093 0.381714 40.7456 0.819703 41.0947L22.7001 58.1445C22.9222 58.3159 23.2079 58.4048 23.4999 58.4048C23.7919 58.4048 24.0839 58.3159 24.2997 58.1445L46.1801 41.0947C46.618 40.752 46.9799 40.0156 46.9799 39.4507V8.82959C46.9926 8.271 46.5609 7.66797 46.0341 7.48389ZM35.0907 18.3257L21.5956 36.9053C21.5007 37.0351 21.3765 37.1408 21.2331 37.2136C21.0898 37.2864 20.9312 37.3244 20.7704 37.3244C20.6096 37.3244 20.451 37.2864 20.3076 37.2136C20.1642 37.1408 20.0401 37.0351 19.9452 36.9053L11.9218 25.8604C11.6805 25.5239 11.9218 25.0542 12.3344 25.0542H15.8383C16.162 25.0542 16.473 25.2129 16.6635 25.4731L20.7704 31.1226L30.349 17.9321C30.5394 17.6719 30.8441 17.5132 31.1742 17.5132H34.6781C35.0907 17.5195 35.3319 17.9893 35.0907 18.3257Z" fill="#1A911E"/>
</svg>
