<svg width="18" height="19" viewBox="0 0 18 19" fill="none" xmlns="http://www.w3.org/2000/svg">
<path fill-rule="evenodd" clip-rule="evenodd" d="M16.6156 13.2868C16.0557 12.8361 15.4574 12.4315 14.8684 12.0182C13.6938 11.1932 12.6195 11.1292 11.743 12.4564C11.2508 13.2015 10.5618 13.2341 9.84137 12.9072C7.85521 12.0067 6.32157 10.6191 5.4232 8.60039C5.02582 7.70729 5.03102 6.90653 5.96086 6.27485C6.45312 5.94081 6.94911 5.5455 6.90944 4.81555C6.85763 3.86377 4.54669 0.683004 3.63412 0.347298C3.25648 0.208348 2.88043 0.21735 2.49626 0.346498C0.356341 1.06612 -0.529962 2.82599 0.31887 4.90976C2.85116 11.1266 7.30768 15.4546 13.4423 18.0962C13.792 18.2466 14.1805 18.3067 14.3773 18.3607C15.7739 18.3747 17.4101 17.0291 17.8826 15.6937C18.3375 14.4089 17.3761 13.8989 16.6156 13.2868Z" fill="white"/>
<path fill-rule="evenodd" clip-rule="evenodd" d="M9.73713 0.984044C14.2219 1.67372 16.2902 3.80624 16.8614 8.3233C16.9143 8.74055 16.7589 9.36835 17.3541 9.37995C17.9763 9.39182 17.8264 8.77328 17.8316 8.35563C17.8842 4.10141 14.1748 0.157548 9.86681 0.0121309C9.54177 0.0588696 8.86923 -0.212028 8.82729 0.516456C8.79935 1.00765 9.36555 0.926904 9.73713 0.984044Z" fill="white"/>
<path fill-rule="evenodd" clip-rule="evenodd" d="M10.6142 2.22199C10.1829 2.17005 9.61338 1.96676 9.51257 2.56537C9.40736 3.19357 10.042 3.12976 10.4499 3.22104C13.2198 3.84011 14.1842 4.8483 14.6403 7.59588C14.7069 7.99646 14.5746 8.61994 15.2553 8.51659C15.7598 8.43978 15.5776 7.90532 15.6198 7.59315C15.6422 4.95531 13.3818 2.5543 10.6142 2.22199Z" fill="white"/>
<path fill-rule="evenodd" clip-rule="evenodd" d="M10.8686 4.37937C10.5807 4.38651 10.298 4.41764 10.1922 4.72535C10.0333 5.18527 10.3676 5.29494 10.708 5.34962C11.8443 5.53204 12.4423 6.20205 12.5558 7.33512C12.5864 7.64268 12.7816 7.89185 13.0787 7.85678C13.4903 7.8077 13.5275 7.44126 13.5149 7.09329C13.5353 5.82027 12.0965 4.3489 10.8686 4.37937Z" fill="white"/>
</svg>
