<svg width="70" height="44" viewBox="0 0 70 44" fill="none" xmlns="http://www.w3.org/2000/svg">
<path fill-rule="evenodd" clip-rule="evenodd" d="M11.5319 0.0125006C11.499 0.0191025 11.448 0.0370753 11.4185 0.0524345C11.3002 0.114075 11.3018 0.111495 10.541 1.45616C10.4063 1.69419 10.1615 2.12568 9.99702 2.41505C9.83253 2.70441 9.52719 3.24283 9.31852 3.61154C8.73664 4.63967 8.28007 5.445 7.90894 6.09785C7.72321 6.42455 7.43078 6.94006 7.25907 7.24343C7.08738 7.54679 6.72495 8.18641 6.45369 8.66479C6.18241 9.14318 5.73637 9.92981 5.46246 10.4128C5.18854 10.8959 4.74361 11.6806 4.4737 12.1567C4.20381 12.6327 3.86169 13.236 3.71345 13.4974C3.13371 14.5195 2.50637 15.626 1.99592 16.5268C1.70236 17.0449 1.33838 17.6864 1.1871 17.9524C0.261313 19.5804 0.0301146 19.9999 0.0102727 20.0879C-0.0250018 20.2444 0.0327124 20.434 0.150482 20.5485C0.184407 20.5815 0.511517 20.7887 0.877388 21.009C1.61415 21.4527 2.66342 22.0873 3.5251 22.6103C3.83529 22.7987 4.36591 23.1202 4.70425 23.325L5.31942 23.6973H5.44768C5.5572 23.6973 5.58777 23.6903 5.65683 23.65C5.79031 23.5721 5.67953 23.7541 6.83169 21.7201C7.13573 21.1834 7.5514 20.4502 7.75541 20.0908C8.27542 19.1749 8.90002 18.0732 9.39594 17.1972C9.62845 16.7865 10.0743 15.9999 10.3868 15.4491C10.6993 14.8984 11.078 14.2302 11.2285 13.9641C11.3789 13.6981 11.6539 13.2131 11.8397 12.8864C12.2215 12.215 12.7047 11.3623 13.2199 10.451C13.4125 10.1103 13.7027 9.59864 13.8648 9.31394C14.027 9.02925 14.2979 8.55193 14.467 8.25323C15.2235 6.91645 15.4215 6.56705 15.7702 5.9536C15.9745 5.59423 16.269 5.0749 16.4247 4.79954C16.5804 4.52418 16.7808 4.17044 16.87 4.01345C16.9592 3.85647 17.0415 3.68947 17.0529 3.64234C17.0941 3.47184 17.0368 3.27477 16.9127 3.15989C16.8813 3.13084 16.6095 2.95835 16.3087 2.77661C16.0079 2.59486 15.4273 2.24355 15.0184 1.99592C11.8756 0.0926398 11.7724 0.0310165 11.6978 0.0139093C11.618 -0.00438595 11.6163 -0.00440292 11.5319 0.0125006ZM58.2912 0.0197984C58.2196 0.0387894 57.8426 0.260997 56.5736 1.03223C56.3011 1.19791 55.6204 1.61023 55.0611 1.94852C53.2436 3.04786 53.0967 3.13874 53.0505 3.19305C52.9509 3.31009 52.9083 3.4803 52.9409 3.63129C52.955 3.69624 53.0721 3.91838 53.3557 4.41766C53.5731 4.80037 53.918 5.40754 54.1221 5.76691C54.3262 6.12628 54.6314 6.6647 54.8002 6.9634C55.0853 7.46762 55.405 8.03156 56.792 10.4765C57.0833 10.9899 57.527 11.7727 57.7782 12.2161C58.0293 12.6594 58.4601 13.4193 58.7355 13.9047C59.011 14.3901 59.4071 15.0889 59.6159 15.4576C60.3424 16.7406 60.8438 17.6247 61.1366 18.1391C61.2986 18.4238 61.5065 18.7904 61.5985 18.9537C61.6905 19.1171 61.9479 19.5715 62.1705 19.9635C62.393 20.3556 62.8046 21.0811 63.0851 21.5758C64.0884 23.3456 64.1736 23.4943 64.215 23.5484C64.2381 23.5785 64.2932 23.6243 64.3375 23.6502C64.4064 23.6904 64.4369 23.6973 64.5471 23.6973C64.6757 23.6973 64.6766 23.6969 64.8633 23.5853C65.0608 23.4671 65.8175 23.0091 67.426 22.0341C67.9618 21.7094 68.7155 21.2531 69.1009 21.0203C69.4863 20.7874 69.823 20.5768 69.8492 20.5523C69.9171 20.4885 69.9815 20.3479 69.9929 20.2381C70.0118 20.0562 70.0593 20.1506 69.1088 18.4785C68.9045 18.1192 68.5993 17.5807 68.4304 17.282C68.2615 16.9833 67.898 16.3418 67.6226 15.8564C67.3472 15.3711 66.9011 14.5844 66.6312 14.1084C66.3613 13.6323 65.8654 12.7579 65.5291 12.1651C65.1929 11.5724 64.7469 10.7858 64.5381 10.4171C64.3292 10.0484 63.9342 9.35149 63.6602 8.86844C63.3862 8.3854 62.9378 7.59494 62.6638 7.1119C62.3898 6.62886 61.9928 5.92814 61.7816 5.55477C61.5704 5.1814 61.2455 4.60861 61.0597 4.28191C60.8738 3.95521 60.4968 3.29077 60.2217 2.80539C58.9833 0.61979 58.7469 0.205551 58.7103 0.157403C58.6622 0.0939806 58.5277 0.0209524 58.4365 0.00864813C58.3989 0.00357366 58.3335 0.00859721 58.2912 0.0197984ZM37.3384 5.42794C34.4329 5.52043 32.0449 5.75438 30.1519 6.13198C28.7613 6.40936 27.8415 6.73895 27.448 7.10085C27.4084 7.13727 27.2271 7.37326 27.045 7.62528C26.8629 7.87731 26.3836 8.53411 25.9798 9.08483C23.8857 11.941 22.7971 13.5316 22.0442 14.8352C21.7084 15.4167 21.6412 15.5583 21.5732 15.8276C21.4829 16.1851 21.4429 16.4372 21.4328 16.7135C21.4113 17.3025 21.5417 17.4803 22.0631 17.5731C22.3606 17.626 23.0242 17.6025 23.5843 17.5191C25.2586 17.2697 26.9468 16.3276 28.5067 14.772C29.135 14.1454 29.7255 13.4329 30.1908 12.74C30.3819 12.4554 30.4586 12.3732 30.5963 12.3052C30.6339 12.2866 30.8415 12.2162 31.0577 12.1487C31.2739 12.0813 31.843 11.9015 32.3224 11.7492C33.8134 11.2755 33.9072 11.247 34.0135 11.2372C34.2177 11.2183 34.2666 11.2394 35.561 11.9061C39.1661 13.763 42.1808 15.4626 44.5249 16.9597C45.8914 17.8324 48.9668 19.9666 51.2842 21.6501C53.2796 23.0998 54.3765 23.9452 56.1676 25.4142L56.8554 25.9783L56.9196 25.9518C57.2162 25.8295 57.7213 25.5483 58.124 25.2813C58.9278 24.7484 59.3313 24.3911 60.701 22.9991C60.9501 22.746 61.2494 22.4558 61.3661 22.3543C61.4828 22.2528 61.6073 22.1431 61.6427 22.1104L61.7072 22.051L61.6001 21.8643C61.4104 21.5336 60.8137 20.4833 60.607 20.1163C60.4965 19.9203 60.2392 19.4658 60.0352 19.1065C59.5682 18.284 58.8103 16.9473 58.1203 15.7292C57.8268 15.2111 57.4155 14.4856 57.2061 14.1169C56.6228 13.0893 56.1675 12.2859 55.7828 11.6051C55.5903 11.2644 55.3001 10.7527 55.1381 10.468C54.83 9.92694 54.4082 9.18296 53.7284 7.98169C53.5066 7.58964 53.2225 7.08878 53.0971 6.86866L52.8691 6.46846L52.5594 6.56798C51.8063 6.81003 51.1595 6.9608 50.4895 7.05044C50.2288 7.08534 49.4823 7.10009 49.2248 7.07544C48.4909 7.0052 47.9398 6.89811 45.8665 6.42276C43.0355 5.77368 41.9142 5.58145 40.1498 5.44277C39.8522 5.41939 37.9264 5.40922 37.3384 5.42794ZM17.0296 6.64518C16.9913 6.71015 16.4451 7.67104 16.2023 8.10049C15.9169 8.6051 15.5856 9.18941 14.2104 11.6136C13.9191 12.127 13.4753 12.9098 13.2241 13.3532C12.6469 14.3719 11.9272 15.6412 11.2417 16.8493C10.9477 17.3673 10.5516 18.0661 10.3614 18.4022C9.81472 19.3679 9.19444 20.4616 8.87437 21.0242C8.39611 21.865 8.09662 22.3966 8.08662 22.4224C8.08075 22.4377 8.22167 22.6065 8.46593 22.8768C8.69031 23.1251 9.14098 23.662 9.53211 24.147C9.90475 24.609 10.3775 25.1955 10.5828 25.4501C10.788 25.7048 10.9613 25.911 10.9679 25.9084C10.9745 25.9057 11.0374 25.8348 11.1077 25.7508C11.9277 24.7704 13.296 24.3868 14.617 24.767C15.9276 25.1442 16.9854 26.1576 17.4297 27.4618C17.4606 27.5524 17.4913 27.6207 17.4979 27.6136C17.5045 27.6065 17.7042 27.3372 17.9416 27.0152C18.4267 26.3571 18.5539 26.2009 18.7316 26.0445C19.1875 25.6431 19.6743 25.3993 20.2691 25.2744C20.5544 25.2144 21.1098 25.1981 21.4162 25.2407C23.2402 25.4938 24.7125 26.9936 24.9577 28.8481C25.0031 29.1921 24.9806 29.7283 24.9065 30.0644L24.8959 30.1125L25.1398 30.1143C25.6858 30.1184 26.2252 30.2553 26.7709 30.5283C28.0354 31.161 28.9035 32.3748 29.0764 33.7522C29.1184 34.086 29.099 34.679 29.0384 34.9196L29.0288 34.9578H29.3088C29.7547 34.9578 30.0673 35.0075 30.4937 35.1463C31.4564 35.4596 32.309 36.1558 32.826 37.0508C33.4712 38.1674 33.5485 39.5318 33.0258 40.573C32.9022 40.8193 32.8392 40.914 32.4829 41.39C32.3186 41.6094 32.1788 41.7977 32.1721 41.8086C32.1636 41.8223 32.334 41.8858 32.7282 42.0158C34.1981 42.5004 35.4015 42.8173 36.8001 43.088C37.4489 43.2136 38.3296 43.2769 38.9278 43.241C39.6294 43.199 40.1335 43.0826 40.5653 42.8633C41.207 42.5373 41.8701 41.943 42.4726 41.1538C42.5539 41.0473 42.6144 40.954 42.6069 40.9465C42.5994 40.9391 42.2665 40.7771 41.8671 40.5867C41.4678 40.3962 40.8911 40.1201 40.5856 39.973C40.2801 39.826 39.8648 39.6272 39.6627 39.5313C39.4606 39.4353 39.1184 39.2713 38.9022 39.1667C38.686 39.0621 38.2322 38.8445 37.8939 38.6833C37.3411 38.4199 36.488 38.0102 35.9008 37.7262C35.7267 37.6419 35.6681 37.604 35.5965 37.5288C35.4383 37.3626 35.3647 37.1318 35.4037 36.9235C35.485 36.4897 35.9169 36.2285 36.336 36.3598C36.3722 36.3711 37.2929 36.8077 37.9964 37.1471C38.1938 37.2424 38.6399 37.4562 38.9876 37.6223C39.3354 37.7884 39.7892 38.006 39.996 38.1059C40.2028 38.2058 40.6565 38.4235 41.0043 38.5897C41.3521 38.7558 41.7982 38.9697 41.9956 39.0649C43.3592 39.7231 43.664 39.8626 43.7382 39.8626C43.779 39.8626 43.9151 39.8754 44.0405 39.8911C44.3286 39.9271 45.1949 39.9329 45.4393 39.9004C45.8071 39.8516 46.1705 39.7558 46.3701 39.655C46.8401 39.4177 47.2207 38.8744 47.4302 38.1415C47.5112 37.8584 47.5816 37.4526 47.603 37.1456L47.6144 36.9829L47.2489 36.774C47.0479 36.6591 46.5489 36.3726 46.14 36.1372C45.7311 35.9019 45.0312 35.4994 44.5847 35.2427C44.1383 34.9861 43.523 34.6323 43.2175 34.4565C42.4578 34.0194 41.2366 33.3174 40.2523 32.7519C38.7129 31.8674 38.7538 31.8919 38.6686 31.8016C38.406 31.523 38.4068 31.1048 38.6704 30.828C38.7782 30.7148 38.8916 30.6527 39.051 30.6197C39.2679 30.5748 39.396 30.6079 39.714 30.7909C40.6015 31.3016 41.8413 32.0146 43.5508 32.9975C43.8234 33.1543 44.2387 33.3931 44.4737 33.5283C44.7086 33.6635 45.2931 33.9996 45.7725 34.2752C46.2519 34.5507 46.9787 34.9687 47.3876 35.2041C47.7965 35.4394 48.2269 35.6868 48.3442 35.754L48.5574 35.8761L48.8398 35.8859C49.1468 35.8966 49.6415 35.8722 49.9623 35.8305C50.3476 35.7806 50.7141 35.687 50.9849 35.5695C51.2068 35.4733 51.4874 35.2403 51.6978 34.9774C52.1724 34.3848 52.3745 33.5292 52.2562 32.6134L52.237 32.4649L49.9191 31.0829C48.6443 30.3228 46.2899 28.9194 44.6873 27.9642C42.597 26.7185 41.7479 26.2038 41.6834 26.1434C41.3677 25.8484 41.4013 25.3265 41.7526 25.0698C41.9353 24.9362 42.1808 24.8935 42.3915 24.9586C42.4607 24.98 44.1863 25.9998 48.0068 28.2773L53.5222 31.5652L53.7063 31.6062C54.0155 31.6751 54.2916 31.7046 54.6253 31.7045C55.232 31.7042 55.706 31.5735 56.1377 31.2873C56.318 31.1678 56.6041 30.8768 56.733 30.6818C56.9456 30.3604 57.1175 29.9389 57.1728 29.6033C57.2134 29.3567 57.1991 28.9823 57.1404 28.7592C57.0251 28.3206 56.7727 27.8937 56.3811 27.475C56.1255 27.2017 54.523 25.9043 52.9078 24.6629C52.3251 24.2152 51.3835 23.4992 51.0876 23.279C49.4638 22.0705 46.0928 19.709 44.2429 18.4839C41.9745 16.9816 38.3608 14.938 34.3885 12.9111L34.0107 12.7183L33.8673 12.762C33.629 12.8346 31.3825 13.5426 31.3811 13.5456C31.3634 13.5837 31.0578 14.0121 30.8949 14.2272C29.6293 15.8983 28.0286 17.283 26.4522 18.0703C25.3644 18.6136 24.4161 18.8905 23.2816 18.9961C21.9415 19.1209 21.1105 18.9346 20.5638 18.3867C19.9549 17.7763 19.8383 16.8262 20.1983 15.4082C20.2754 15.1046 20.2939 15.0541 20.4109 14.8258C20.9878 13.7013 22.1258 11.962 23.8175 9.61943C24.2244 9.05591 24.3086 8.92997 24.2848 8.92029C24.2688 8.91381 23.8635 8.85051 23.3841 8.77963C20.8151 8.39978 19.8336 8.18156 19.0773 7.82205C18.8121 7.696 18.1195 7.29295 17.3251 6.80241C17.1738 6.70893 17.047 6.63245 17.0435 6.63245C17.04 6.63245 17.0337 6.63817 17.0296 6.64518ZM13.3008 26.0654C13.0444 26.1051 12.7748 26.2088 12.5575 26.3512C12.3675 26.4758 12.237 26.6224 11.8244 27.1751C10.8535 28.4757 10.6194 28.794 10.5555 28.9009C10.2746 29.3705 10.2329 30.0667 10.4486 30.6849C10.7011 31.4083 11.293 32.0434 11.9972 32.3468C12.7131 32.6551 13.4801 32.5992 14.0182 32.1995C14.1347 32.113 14.2622 31.952 15.2187 30.6842C15.6539 30.1074 15.9529 29.6952 15.9944 29.615C16.1318 29.349 16.1976 29.0564 16.1976 28.7118C16.1976 27.4975 15.2775 26.3704 14.0628 26.0969C13.8922 26.0585 13.4606 26.0407 13.3008 26.0654ZM20.584 26.6689C20.2209 26.734 19.9033 26.896 19.6579 27.1412C19.5827 27.2164 19.2573 27.6419 18.7874 28.2795C18.3748 28.8396 17.9321 29.4392 17.8038 29.612C17.6754 29.7847 17.413 30.1399 17.2204 30.4011C17.0279 30.6624 16.5178 31.3535 16.0869 31.9369C14.6827 33.8377 14.7767 33.7074 14.6981 33.8632C14.5517 34.1534 14.4985 34.4277 14.5106 34.8305C14.5231 35.2433 14.5969 35.5198 14.7986 35.9082C14.9409 36.1824 15.0979 36.3945 15.326 36.621C15.894 37.1851 16.624 37.4721 17.3129 37.4022C17.7286 37.36 18.0744 37.2082 18.3576 36.9435C18.4944 36.8156 18.5316 36.7677 19.2916 35.7385C20.3166 34.3504 20.6441 33.9072 21.179 33.1843C23.2612 30.3701 23.2448 30.3925 23.3141 30.2686C23.8385 29.3314 23.4865 28.0053 22.5051 27.2214C22.1298 26.9216 21.7252 26.7381 21.2825 26.6668C21.0913 26.636 20.7619 26.637 20.584 26.6689ZM24.6574 31.5786C24.3919 31.6365 24.1061 31.7681 23.924 31.9162C23.8362 31.9877 23.4354 32.5175 21.8861 34.6099C20.5355 36.4338 20.023 37.1387 19.9362 37.2914C19.8245 37.4878 19.7484 37.7007 19.7084 37.9285C19.6739 38.1254 19.6836 38.5471 19.7271 38.7424C19.9568 39.7733 20.7518 40.6079 21.7414 40.857C22.4431 41.0337 23.1295 40.8707 23.5782 40.421C23.6361 40.3629 24.0372 39.8319 24.4729 39.2364C24.9072 38.6427 25.375 38.0042 25.5124 37.8175C26.4858 36.4949 27.3629 35.2868 27.4239 35.1844C27.6151 34.8637 27.708 34.4076 27.6664 33.9946C27.6018 33.3531 27.2962 32.7476 26.7992 32.2763C26.4431 31.9386 26.0466 31.7179 25.5902 31.6032C25.3512 31.5431 24.8774 31.5306 24.6574 31.5786ZM28.9928 36.408C28.7124 36.4573 28.4418 36.5701 28.2354 36.7239C28.0578 36.8562 28.0192 36.8971 27.8116 37.1726C27.322 37.8223 25.5549 40.2456 25.4044 40.4735C25.1631 40.8391 25.1391 41.5897 25.3499 42.1707C25.5845 42.8168 26.0998 43.4021 26.7082 43.7132C27.4996 44.1179 28.3314 44.093 28.9279 43.6467C29.107 43.5126 29.1715 43.4363 29.6587 42.7817C29.8844 42.4783 30.2767 41.9513 30.5305 41.6106C30.7843 41.2699 31.1368 40.7967 31.3138 40.559C31.6673 40.0843 31.7246 39.9957 31.8016 39.8047C32.0873 39.0961 31.94 38.2207 31.4155 37.5107C31.0004 36.9488 30.4175 36.5653 29.7674 36.4262C29.5894 36.3881 29.1631 36.3782 28.9928 36.408Z" fill="white"/>
</svg>
