<svg width="35" height="35" viewBox="0 0 35 35" fill="none" xmlns="http://www.w3.org/2000/svg">
<path fill-rule="evenodd" clip-rule="evenodd" d="M1.26187 0.0473074C0.933438 0.133454 0.743851 0.243553 0.495227 0.492458C0.240667 0.747325 0.132073 0.936006 0.0489267 1.26791C-0.00349263 1.47718 -0.00367631 1.54313 0.00304682 17.5779L0.00976986 33.6778L0.0801263 33.8705C0.263436 34.3723 0.611463 34.7244 1.11956 34.9221L1.29662 34.991L17.4302 34.9977C31.7825 35.0036 33.5828 35 33.7357 34.9645C34.3148 34.8302 34.8302 34.3147 34.9645 33.7357C35 33.5827 35.0036 31.7823 34.9977 17.4289L34.991 1.29417L34.9221 1.1171C34.8224 0.860654 34.698 0.667561 34.5144 0.483896C34.3238 0.29335 34.1351 0.174242 33.8705 0.0775899L33.6779 0.00722831L17.5661 0.00205432C1.75085 -0.00304092 1.45065 -0.00220048 1.26187 0.0473074ZM14.6966 3.10143C15.762 3.90041 17.3167 5.06488 18.1515 5.68913C19.1741 6.45378 19.663 6.83461 19.65 6.85628C19.6144 6.91535 18.7675 8.04321 18.7152 8.10114L18.6636 8.15827L15.4449 5.74394L12.2261 3.32964H7.77902H3.33194V17.4991V31.6686H9.16215H14.9924V25.838V20.0073H12.0769H9.16141L9.16834 19.1735L9.17528 18.3396L15.8393 18.333L22.5033 18.3263V19.1668V20.0073H19.5882H16.6731V25.838V31.6686H24.171H31.6689V25.838V20.0073H29.1739H26.679V19.1669V18.3264H29.1739H31.6689V10.828V3.32964H27.0857H22.5026L22.5095 2.49575L22.5165 1.66187H27.9265H33.3365L33.3431 17.5057L33.3497 33.3496L17.507 33.343L1.66429 33.3364L1.65757 17.5254C1.65389 8.82934 1.65646 1.69963 1.66332 1.68157C1.67322 1.65543 2.8083 1.64874 7.21764 1.64874H12.7595L14.6966 3.10143Z" fill="#1A911E"/>
</svg>
