<svg width="19" height="18" viewBox="0 0 19 18" fill="none" xmlns="http://www.w3.org/2000/svg">
<path d="M0 17.933L1.83252 13.6136C0.622548 11.9123 0.14639 9.86892 0.494454 7.87143C0.842517 5.87394 1.99057 4.06144 3.72061 2.77809C5.45066 1.49473 7.64224 0.829876 9.87922 0.909768C12.1162 0.989659 14.2428 1.80873 15.8553 3.21146C17.4677 4.61419 18.4538 6.50291 18.6261 8.51898C18.7985 10.5351 18.1452 12.5381 16.7903 14.1478C15.4354 15.7575 13.4732 16.8618 11.2763 17.2509C9.0794 17.64 6.8008 17.287 4.87313 16.2587L0 17.933ZM5.25302 15.0164L5.41822 15.1097C7.02824 16.0074 8.949 16.3355 10.8107 16.0307C12.6725 15.726 14.3436 14.81 15.5025 13.459C16.6613 12.1081 17.226 10.4177 17.0877 8.71333C16.9494 7.00893 16.118 5.41096 14.7535 4.22705C13.389 3.04313 11.5879 2.35694 9.69684 2.30058C7.80579 2.24421 5.9585 2.82166 4.51056 3.92175C3.06262 5.02185 2.11638 6.56683 1.854 8.25929C1.59163 9.95175 2.03165 11.6721 3.08937 13.0891L3.20363 13.2429L1.97807 16.143L5.25302 15.0164Z" fill="#FEFEFE"/>
<path d="M13.7783 10.6784C12.9348 10.284 12.0382 9.91853 12.0317 9.91525C11.7231 9.78378 11.5062 9.93037 11.4393 10.0178L10.7377 10.8066C10.5485 10.9565 10.285 10.8066 10.2559 10.7908C9.07988 10.352 8.09722 9.57464 7.46056 8.57954C7.31501 8.41126 7.44237 8.30148 7.47002 8.28045C7.76113 8.05301 8.02967 7.66584 8.03986 7.65072C8.2138 7.40487 8.05806 7.09921 8.05296 7.08935L7.29972 5.51503C7.12142 5.20805 6.71751 5.26064 6.71169 5.26261H6.41258C6.3152 5.24872 6.2156 5.25487 6.12122 5.28059C6.02684 5.30632 5.9401 5.35095 5.86748 5.41117C5.51945 5.6569 5.24851 5.98047 5.08149 6.34985C4.93024 6.77023 4.88826 7.21645 4.95881 7.65386C5.02937 8.09127 5.21055 8.50812 5.48831 8.87205C6.78228 10.7645 8.02749 11.5218 8.07698 11.5507C9.82362 12.7037 11.5761 12.8654 11.643 12.8706C11.7407 12.8826 11.8392 12.8885 11.9378 12.8884C12.2436 12.884 12.5455 12.8253 12.8262 12.7156C13.1069 12.6058 13.361 12.4472 13.5738 12.2488C13.9799 11.9326 14.0432 11.2201 14.0454 11.1832C14.0476 10.7875 13.7819 10.6797 13.7783 10.6784Z" fill="#FEFEFE"/>
</svg>
