<svg width="25" height="24" viewBox="0 0 25 24" fill="none" xmlns="http://www.w3.org/2000/svg">
<path fill-rule="evenodd" clip-rule="evenodd" d="M12.5 23C12.5 23 21.5 17 21.5 10C21.5 7.61305 20.5518 5.32387 18.864 3.63604C17.1761 1.94821 14.8869 1 12.5 1C10.1131 1 7.82387 1.94821 6.13604 3.63604C4.44821 5.32387 3.5 7.61305 3.5 10C3.5 17 12.5 23 12.5 23ZM17.5 10C17.5 12.7614 15.2614 15 12.5 15C9.73858 15 7.5 12.7614 7.5 10C7.5 7.23858 9.73858 5 12.5 5C15.2614 5 17.5 7.23858 17.5 10Z" fill="white"/>
</svg>
